RedHatMono-Italic.ufo
<glyph name="numbersign" format="2">
  <advance width="600"/>
  <unicode hex="0023"/>
  <outline>
    <contour>
      <point x="-7" y="0" type="line"/>
      <point x="59" y="0" type="line"/>
      <point x="179" y="219" type="line"/>
      <point x="322" y="219" type="line"/>
      <point x="202" y="0" type="line"/>
      <point x="268" y="0" type="line"/>
      <point x="388" y="219" type="line"/>
      <point x="523" y="219" type="line"/>
      <point x="535" y="277" type="line"/>
      <point x="420" y="277" type="line"/>
      <point x="500" y="423" type="line"/>
      <point x="613" y="423" type="line"/>
      <point x="626" y="481" type="line"/>
      <point x="532" y="481" type="line"/>
      <point x="652" y="700" type="line"/>
      <point x="586" y="700" type="line"/>
      <point x="466" y="481" type="line"/>
      <point x="323" y="481" type="line"/>
      <point x="443" y="700" type="line"/>
      <point x="377" y="700" type="line"/>
      <point x="257" y="481" type="line"/>
      <point x="122" y="481" type="line"/>
      <point x="109" y="423" type="line"/>
      <point x="225" y="423" type="line"/>
      <point x="145" y="277" type="line"/>
      <point x="31" y="277" type="line"/>
      <point x="19" y="219" type="line"/>
      <point x="113" y="219" type="line"/>
    </contour>
    <contour>
      <point x="211" y="277" type="line"/>
      <point x="291" y="423" type="line"/>
      <point x="434" y="423" type="line"/>
      <point x="354" y="277" type="line"/>
    </contour>
  </outline>
</glyph>
<glyph name="dollar" format="2">
  <advance width="600"/>
  <unicode hex="0024"/>
  <outline>
    <contour>
      <point x="202" y="-67" type="line"/>
      <point x="256" y="-67" type="line"/>
      <point x="274" y="20" type="line"/>
      <point x="276" y="20"/>
      <point x="278" y="20"/>
      <point x="280" y="20" type="curve" smooth="yes"/>
      <point x="420" y="20"/>
      <point x="515" y="101"/>
      <point x="515" y="208" type="curve" smooth="yes"/>
      <point x="515" y="285"/>
      <point x="482" y="332"/>
      <point x="351" y="381" type="curve"/>
      <point x="400" y="613" type="line"/>
      <point x="446" y="602"/>
      <point x="489" y="576"/>
      <point x="527" y="537" type="curve"/>
      <point x="573" y="585" type="line"/>
      <point x="528" y="629"/>
      <point x="470" y="660"/>
      <point x="413" y="672" type="curve"/>
      <point x="433" y="767" type="line"/>
      <point x="379" y="767" type="line"/>
      <point x="360" y="679" type="line"/>
      <point x="358" y="679"/>
      <point x="355" y="679"/>
      <point x="353" y="679" type="curve" smooth="yes"/>
      <point x="213" y="679"/>
      <point x="132" y="607"/>
      <point x="132" y="501" type="curve" smooth="yes"/>
      <point x="132" y="421"/>
      <point x="180" y="369"/>
      <point x="286" y="331" type="curve"/>
      <point x="235" y="87" type="line"/>
      <point x="185" y="97"/>
      <point x="138" y="124"/>
      <point x="93" y="167" type="curve"/>
      <point x="51" y="117" type="line"/>
      <point x="102" y="68"/>
      <point x="159" y="37"/>
      <point x="222" y="25" type="curve"/>
    </contour>
    <contour>
      <point x="300" y="396" type="line"/>
      <point x="228" y="424"/>
      <point x="199" y="455"/>
      <point x="199" y="505" type="curve" smooth="yes"/>
      <point x="199" y="573"/>
      <point x="256" y="619"/>
      <point x="348" y="619" type="curve"/>
    </contour>
    <contour>
      <point x="288" y="82" type="curve"/>
      <point x="337" y="315" type="line"/>
      <point x="426" y="279"/>
      <point x="448" y="250"/>
      <point x="448" y="205" type="curve" smooth="yes"/>
      <point x="448" y="135"/>
      <point x="383" y="83"/>
    </contour>
  </outline>
</glyph>
<glyph name="ampersand" format="2">
  <advance width="600"/>
  <unicode hex="0026"/>
  <outline>
    <contour>
      <point x="487" y="-13" type="curve"/>
      <point x="538" y="37" type="line"/>
      <point x="517" y="57"/>
      <point x="496" y="80"/>
      <point x="454" y="126" type="curve"/>
      <point x="497" y="183"/>
      <point x="532" y="255"/>
      <point x="556" y="335" type="curve"/>
      <point x="491" y="346" type="line"/>
      <point x="474" y="283"/>
      <point x="447" y="225"/>
      <point x="412" y="175" type="curve"/>
      <point x="361" y="236"/>
      <point x="313" y="301"/>
      <point x="274" y="361" type="curve"/>
      <point x="418" y="436"/>
      <point x="468" y="492"/>
      <point x="468" y="580" type="curve" smooth="yes"/>
      <point x="468" y="659"/>
      <point x="411" y="711"/>
      <point x="326" y="711" type="curve" smooth="yes"/>
      <point x="225" y="711"/>
      <point x="150" y="628"/>
      <point x="150" y="515" type="curve" smooth="yes"/>
      <point x="150" y="471"/>
      <point x="160" y="427"/>
      <point x="181" y="381" type="curve"/>
      <point x="71" y="323"/>
      <point x="23" y="255"/>
      <point x="23" y="159" type="curve" smooth="yes"/>
      <point x="23" y="59"/>
      <point x="103" y="-11"/>
      <point x="218" y="-11" type="curve" smooth="yes"/>
      <point x="283" y="-11"/>
      <point x="347" y="18"/>
      <point x="405" y="72" type="curve"/>
      <point x="432" y="42"/>
      <point x="459" y="14"/>
    </contour>
    <contour>
      <point x="219" y="52" type="curve" smooth="yes"/>
      <point x="142" y="52"/>
      <point x="93" y="96"/>
      <point x="93" y="167" type="curve" smooth="yes"/>
      <point x="93" y="231"/>
      <point x="129" y="279"/>
      <point x="211" y="327" type="curve"/>
      <point x="252" y="260"/>
      <point x="305" y="188"/>
      <point x="364" y="119" type="curve"/>
      <point x="318" y="75"/>
      <point x="268" y="52"/>
    </contour>
    <contour>
      <point x="244" y="413" type="curve"/>
      <point x="228" y="446"/>
      <point x="220" y="483"/>
      <point x="220" y="525" type="curve" smooth="yes"/>
      <point x="220" y="597"/>
      <point x="264" y="651"/>
      <point x="322" y="651" type="curve" smooth="yes"/>
      <point x="368" y="651"/>
      <point x="397" y="621"/>
      <point x="397" y="572" type="curve" smooth="yes"/>
      <point x="397" y="509"/>
      <point x="357" y="467"/>
    </contour>
  </outline>
</glyph>
<glyph name="parenright" format="2">
  <advance width="600"/>
  <unicode hex="0029"/>
  <outline>
    <contour>
      <point x="267" y="714" type="curve"/>
      <point x="220" y="663" type="line"/>
      <point x="321" y="580"/>
      <point x="381" y="451"/>
      <point x="381" y="318" type="curve" smooth="yes"/>
      <point x="381" y="137"/>
      <point x="272" y="-61"/>
      <point x="33" y="-168" type="curve"/>
      <point x="60" y="-222" type="line"/>
      <point x="325" y="-110"/>
      <point x="451" y="112"/>
      <point x="451" y="321" type="curve" smooth="yes"/>
      <point x="451" y="475"/>
      <point x="383" y="620"/>
    </contour>
  </outline>
</glyph>
<glyph name="plus" format="2">
  <advance width="600"/>
  <unicode hex="002B"/>
  <outline>
    <contour>
      <point x="247" y="145" type="line"/>
      <point x="309" y="145" type="line"/>
      <point x="348" y="326" type="line"/>
      <point x="514" y="326" type="line"/>
      <point x="527" y="386" type="line"/>
      <point x="360" y="386" type="line"/>
      <point x="399" y="567" type="line"/>
      <point x="337" y="567" type="line"/>
      <point x="298" y="386" type="line"/>
      <point x="132" y="386" type="line"/>
      <point x="119" y="326" type="line"/>
      <point x="286" y="326" type="line"/>
    </contour>
  </outline>
</glyph>
<glyph name="period" format="2">
  <advance width="600"/>
  <unicode hex="002E"/>
  <outline>
    <contour>
      <point x="254" y="-9" type="curve" smooth="yes"/>
      <point x="291" y="-9"/>
      <point x="324" y="26"/>
      <point x="324" y="63" type="curve" smooth="yes"/>
      <point x="324" y="96"/>
      <point x="299" y="121"/>
      <point x="267" y="121" type="curve" smooth="yes"/>
      <point x="229" y="121"/>
      <point x="196" y="87"/>
      <point x="196" y="49" type="curve" smooth="yes"/>
      <point x="196" y="16"/>
      <point x="221" y="-9"/>
    </contour>
  </outline>
</glyph>
<glyph name="zero" format="2">
  <advance width="600"/>
  <unicode hex="0030"/>
  <outline>
    <contour>
      <point x="280" y="-11" type="curve" smooth="yes"/>
      <point x="440" y="-11"/>
      <point x="583" y="180"/>
      <point x="583" y="430" type="curve" smooth="yes"/>
      <point x="583" y="616"/>
      <point x="489" y="711"/>
      <point x="364" y="711" type="curve" smooth="yes"/>
      <point x="204" y="711"/>
      <point x="61" y="520"/>
      <point x="61" y="270" type="curve" smooth="yes"/>
      <point x="61" y="84"/>
      <point x="155" y="-11"/>
    </contour>
    <contour>
      <point x="280" y="54" type="curve" smooth="yes"/>
      <point x="242" y="54"/>
      <point x="208" y="69"/>
      <point x="183" y="98" type="curve"/>
      <point x="497" y="535" type="line"/>
      <point x="507" y="505"/>
      <point x="512" y="468"/>
      <point x="512" y="426" type="curve" smooth="yes"/>
      <point x="512" y="219"/>
      <point x="404" y="54"/>
    </contour>
    <contour>
      <point x="149" y="160" type="line"/>
      <point x="138" y="192"/>
      <point x="132" y="230"/>
      <point x="132" y="274" type="curve" smooth="yes"/>
      <point x="132" y="481"/>
      <point x="240" y="646"/>
      <point x="364" y="646" type="curve" smooth="yes"/>
      <point x="403" y="646"/>
      <point x="437" y="630"/>
      <point x="462" y="600" type="curve"/>
    </contour>
  </outline>
</glyph>
<glyph name="one" format="2">
  <advance width="600"/>
  <unicode hex="0031"/>
  <outline>
    <contour>
      <point x="60" y="0" type="line"/>
      <point x="511" y="0" type="line"/>
      <point x="524" y="63" type="line"/>
      <point x="322" y="63" type="line"/>
      <point x="458" y="700" type="line"/>
      <point x="413" y="700" type="line"/>
      <point x="190" y="610" type="line"/>
      <point x="175" y="538" type="line"/>
      <point x="368" y="616" type="line"/>
      <point x="250" y="63" type="line"/>
      <point x="73" y="63" type="line"/>
    </contour>
  </outline>
</glyph>
<glyph name="seven" format="2">
  <advance width="600"/>
  <unicode hex="0037"/>
  <outline>
    <contour>
      <point x="64" y="0" type="line"/>
      <point x="148" y="0" type="line"/>
      <point x="629" y="644" type="line"/>
      <point x="641" y="700" type="line"/>
      <point x="142" y="700" type="line"/>
      <point x="128" y="637" type="line"/>
      <point x="547" y="637" type="line"/>
    </contour>
  </outline>
</glyph>
<glyph name="eight" format="2">
  <advance width="600"/>
  <unicode hex="0038"/>
  <note>
Version created Tue Sep 18 15:49:42 2018
</note>
  <outline>
    <contour>
      <point x="280" y="-10" type="curve" smooth="yes"/>
      <point x="419" y="-10"/>
      <point x="536" y="73"/>
      <point x="536" y="197" type="curve" smooth="yes"/>
      <point x="536" y="270"/>
      <point x="485" y="331"/>
      <point x="412" y="360" type="curve"/>
      <point x="514" y="386"/>
      <point x="576" y="453"/>
      <point x="576" y="541" type="curve" smooth="yes"/>
      <point x="576" y="631"/>
      <point x="501" y="711"/>
      <point x="366" y="711" type="curve" smooth="yes"/>
      <point x="240" y="711"/>
      <point x="133" y="634"/>
      <point x="133" y="517" type="curve" smooth="yes"/>
      <point x="133" y="457"/>
      <point x="167" y="405"/>
      <point x="231" y="378" type="curve"/>
      <point x="115" y="356"/>
      <point x="40" y="276"/>
      <point x="40" y="181" type="curve" smooth="yes"/>
      <point x="40" y="74"/>
      <point x="137" y="-10"/>
    </contour>
    <contour>
      <point x="349" y="399" type="curve" smooth="yes"/>
      <point x="259" y="399"/>
      <point x="203" y="450"/>
      <point x="203" y="516" type="curve" smooth="yes"/>
      <point x="203" y="595"/>
      <point x="274" y="653"/>
      <point x="360" y="653" type="curve" smooth="yes"/>
      <point x="460" y="653"/>
      <point x="506" y="602"/>
      <point x="506" y="536" type="curve" smooth="yes"/>
      <point x="506" y="457"/>
      <point x="434" y="399"/>
    </contour>
    <contour>
      <point x="286" y="47" type="curve" smooth="yes"/>
      <point x="179" y="47"/>
      <point x="112" y="111"/>
      <point x="112" y="189" type="curve" smooth="yes"/>
      <point x="112" y="276"/>
      <point x="184" y="337"/>
      <point x="293" y="337" type="curve" smooth="yes"/>
      <point x="398" y="337"/>
      <point x="464" y="274"/>
      <point x="464" y="197" type="curve" smooth="yes"/>
      <point x="464" y="109"/>
      <point x="393" y="47"/>
    </contour>
  </outline>
</glyph>
<glyph name="greater" format="2">
  <advance width="600"/>
  <unicode hex="003E"/>
  <outline>
    <contour>
      <point x="236" y="594" type="line"/>
      <point x="192" y="549" type="line"/>
      <point x="407" y="354" type="line"/>
      <point x="109" y="155" type="line"/>
      <point x="141" y="103" type="line"/>
      <point x="501" y="348" type="line"/>
    </contour>
  </outline>
</glyph>
<glyph name="question" format="2">
  <advance width="600"/>
  <unicode hex="003F"/>
  <outline>
    <contour>
      <point x="233" y="215" type="curve"/>
      <point x="295" y="215" type="line"/>
      <point x="316" y="386"/>
      <point x="566" y="346"/>
      <point x="566" y="552" type="curve" smooth="yes"/>
      <point x="566" y="640"/>
      <point x="488" y="707"/>
      <point x="376" y="707" type="curve" smooth="yes"/>
      <point x="299" y="707"/>
      <point x="221" y="671"/>
      <point x="159" y="606" type="curve"/>
      <point x="207" y="562" type="line"/>
      <point x="256" y="612"/>
      <point x="314" y="641"/>
      <point x="372" y="641" type="curve" smooth="yes"/>
      <point x="445" y="641"/>
      <point x="495" y="601"/>
      <point x="495" y="545" type="curve" smooth="yes"/>
      <point x="495" y="393"/>
      <point x="249" y="417"/>
    </contour>
    <contour>
      <point x="228" y="-9" type="curve" smooth="yes"/>
      <point x="265" y="-9"/>
      <point x="298" y="26"/>
      <point x="298" y="63" type="curve" smooth="yes"/>
      <point x="298" y="96"/>
      <point x="273" y="121"/>
      <point x="241" y="121" type="curve" smooth="yes"/>
      <point x="203" y="121"/>
      <point x="170" y="87"/>
      <point x="170" y="49" type="curve" smooth="yes"/>
      <point x="170" y="16"/>
      <point x="195" y="-9"/>
    </contour>
  </outline>
</glyph>
<glyph name="A" format="2">
  <advance width="600"/>
  <unicode hex="0041"/>
  <anchor x="397" y="700" name="top"/>
  <anchor x="532" y="0" name="bottom"/>
  <outline>
    <contour>
      <point x="-36" y="0" type="line"/>
      <point x="46" y="0" type="line"/>
      <point x="151" y="195" type="line"/>
      <point x="431" y="195" type="line"/>
      <point x="453" y="0" type="line"/>
      <point x="532" y="0" type="line"/>
      <point x="447" y="700" type="line"/>
      <point x="348" y="700" type="line"/>
    </contour>
    <contour>
      <point x="184" y="256" type="line"/>
      <point x="381" y="622" type="line"/>
      <point x="424" y="256" type="line"/>
    </contour>
  </outline>
</glyph>
<glyph name="C" format="2">
  <advance width="600"/>
  <unicode hex="0043"/>
  <guideline x="164" y="284" angle="0.0" identifier="XzmC9agYa3"/>
  <anchor x="377" y="700" name="top"/>
  <anchor x="287" y="0" name="bottom"/>
  <outline>
    <contour>
      <point x="291" y="-11" type="curve" smooth="yes"/>
      <point x="412" y="-11"/>
      <point x="510" y="69"/>
      <point x="563" y="204" type="curve"/>
      <point x="492" y="227" type="line"/>
      <point x="454" y="119"/>
      <point x="377" y="59"/>
      <point x="295" y="59" type="curve" smooth="yes"/>
      <point x="202" y="59"/>
      <point x="136" y="144"/>
      <point x="136" y="292" type="curve" smooth="yes"/>
      <point x="136" y="500"/>
      <point x="237" y="641"/>
      <point x="357" y="641" type="curve" smooth="yes"/>
      <point x="439" y="641"/>
      <point x="502" y="581"/>
      <point x="518" y="473" type="curve"/>
      <point x="593" y="496" type="line"/>
      <point x="570" y="631"/>
      <point x="485" y="711"/>
      <point x="361" y="711" type="curve" smooth="yes"/>
      <point x="201" y="711"/>
      <point x="58" y="546"/>
      <point x="58" y="286" type="curve" smooth="yes"/>
      <point x="58" y="94"/>
      <point x="156" y="-11"/>
    </contour>
  </outline>
</glyph>
<glyph name="E" format="2">
  <advance width="600"/>
  <unicode hex="0045"/>
  <anchor x="397" y="700" name="top"/>
  <anchor x="487" y="0" name="bottom"/>
  <outline>
    <contour>
      <point x="45" y="0" type="line"/>
      <point x="487" y="0" type="line"/>
      <point x="501" y="67" type="line"/>
      <point x="136" y="67" type="line"/>
      <point x="190" y="320" type="line"/>
      <point x="431" y="320" type="line"/>
      <point x="445" y="387" type="line"/>
      <point x="204" y="387" type="line"/>
      <point x="257" y="633" type="line"/>
      <point x="617" y="633" type="line"/>
      <point x="632" y="700" type="line"/>
      <point x="194" y="700" type="line"/>
    </contour>
  </outline>
</glyph>
<glyph name="G" format="2">
  <advance width="600"/>
  <unicode hex="0047"/>
  <anchor x="377" y="700" name="top"/>
  <anchor x="287" y="0" name="bottom"/>
  <outline>
    <contour>
      <point x="285" y="-11" type="curve" smooth="yes"/>
      <point x="443" y="-11"/>
      <point x="556" y="120"/>
      <point x="588" y="339" type="curve" smooth="yes"/>
      <point x="592" y="366" type="line"/>
      <point x="356" y="366" type="line"/>
      <point x="341" y="298" type="line"/>
      <point x="501" y="298" type="line"/>
      <point x="471" y="153"/>
      <point x="390" y="59"/>
      <point x="291" y="59" type="curve" smooth="yes"/>
      <point x="196" y="59"/>
      <point x="133" y="130"/>
      <point x="133" y="274" type="curve" smooth="yes"/>
      <point x="133" y="478"/>
      <point x="235" y="641"/>
      <point x="367" y="641" type="curve" smooth="yes"/>
      <point x="448" y="641"/>
      <point x="508" y="579"/>
      <point x="523" y="473" type="curve"/>
      <point x="598" y="487" type="line"/>
      <point x="576" y="634"/>
      <point x="481" y="711"/>
      <point x="369" y="711" type="curve" smooth="yes"/>
      <point x="197" y="711"/>
      <point x="57" y="512"/>
      <point x="57" y="270" type="curve" smooth="yes"/>
      <point x="57" y="86"/>
      <point x="149" y="-11"/>
    </contour>
  </outline>
</glyph>
<glyph name="I" format="2">
  <advance width="600"/>
  <unicode hex="0049"/>
  <anchor x="397" y="700" name="top"/>
  <anchor x="468" y="0" name="bottom"/>
  <outline>
    <contour>
      <point x="28" y="0" type="line"/>
      <point x="468" y="0" type="line"/>
      <point x="482" y="68" type="line"/>
      <point x="301" y="68" type="line"/>
      <point x="422" y="632" type="line"/>
      <point x="602" y="632" type="line"/>
      <point x="617" y="700" type="line"/>
      <point x="177" y="700" type="line"/>
      <point x="162" y="632" type="line"/>
      <point x="345" y="632" type="line"/>
      <point x="224" y="68" type="line"/>
      <point x="42" y="68" type="line"/>
    </contour>
  </outline>
</glyph>
<glyph name="J" format="2">
  <advance width="600"/>
  <unicode hex="004A"/>
  <anchor x="575" y="700" name="top"/>
  <outline>
    <contour>
      <point x="253" y="-11" type="curve" smooth="yes"/>
      <point x="384" y="-11"/>
      <point x="477" y="65"/>
      <point x="513" y="233" type="curve" smooth="yes"/>
      <point x="613" y="700" type="line"/>
      <point x="537" y="700" type="line"/>
      <point x="440" y="248" type="line" smooth="yes"/>
      <point x="409" y="105"/>
      <point x="345" y="59"/>
      <point x="257" y="59" type="curve" smooth="yes"/>
      <point x="169" y="59"/>
      <point x="117" y="118"/>
      <point x="101" y="200" type="curve"/>
      <point x="33" y="175" type="line"/>
      <point x="56" y="56"/>
      <point x="137" y="-11"/>
    </contour>
  </outline>
</glyph>
<glyph name="K" format="2">
  <advance width="600"/>
  <unicode hex="004B"/>
  <anchor x="248" y="0" name="bottom"/>
  <outline>
    <contour>
      <point x="47" y="0" type="line"/>
      <point x="124" y="0" type="line"/>
      <point x="197" y="341" type="line"/>
      <point x="424" y="0" type="line"/>
      <point x="520" y="0" type="line"/>
      <point x="274" y="357" type="line"/>
      <point x="662" y="700" type="line"/>
      <point x="564" y="700" type="line"/>
      <point x="205" y="379" type="line"/>
      <point x="273" y="700" type="line"/>
      <point x="196" y="700" type="line"/>
    </contour>
  </outline>
</glyph>
<glyph name="P" format="2">
  <advance width="600"/>
  <unicode hex="0050"/>
  <outline>
    <contour>
      <point x="43" y="0" type="line"/>
      <point x="120" y="0" type="line"/>
      <point x="181" y="286" type="line"/>
      <point x="351" y="286" type="line" smooth="yes"/>
      <point x="493" y="286"/>
      <point x="596" y="384"/>
      <point x="596" y="520" type="curve" smooth="yes"/>
      <point x="596" y="631"/>
      <point x="520" y="700"/>
      <point x="399" y="700" type="curve" smooth="yes"/>
      <point x="192" y="700" type="line"/>
    </contour>
    <contour>
      <point x="195" y="353" type="line"/>
      <point x="255" y="633" type="line"/>
      <point x="386" y="633" type="line" smooth="yes"/>
      <point x="470" y="633"/>
      <point x="521" y="589"/>
      <point x="521" y="516" type="curve" smooth="yes"/>
      <point x="521" y="419"/>
      <point x="450" y="353"/>
      <point x="348" y="353" type="curve" smooth="yes"/>
    </contour>
  </outline>
</glyph>
<glyph name="U" format="2">
  <advance width="600"/>
  <unicode hex="0055"/>
  <anchor x="394" y="700" name="top"/>
  <anchor x="352" y="0" name="bottom"/>
  <outline>
    <contour>
      <point x="273" y="-11" type="curve" smooth="yes"/>
      <point x="423" y="-11"/>
      <point x="506" y="83"/>
      <point x="539" y="236" type="curve" smooth="yes"/>
      <point x="638" y="700" type="line"/>
      <point x="561" y="700" type="line"/>
      <point x="464" y="246" type="line" smooth="yes"/>
      <point x="438" y="126"/>
      <point x="380" y="59"/>
      <point x="273" y="59" type="curve" smooth="yes"/>
      <point x="165" y="59"/>
      <point x="113" y="138"/>
      <point x="139" y="259" type="curve" smooth="yes"/>
      <point x="233" y="700" type="line"/>
      <point x="156" y="700" type="line"/>
      <point x="64" y="270" type="line" smooth="yes"/>
      <point x="26" y="90"/>
      <point x="117" y="-11"/>
    </contour>
  </outline>
</glyph>
<glyph name="V" format="2">
  <advance width="600"/>
  <unicode hex="0056"/>
  <outline>
    <contour>
      <point x="198" y="0" type="line"/>
      <point x="297" y="0" type="line"/>
      <point x="681" y="700" type="line"/>
      <point x="599" y="700" type="line"/>
      <point x="264" y="78" type="line"/>
      <point x="192" y="700" type="line"/>
      <point x="113" y="700" type="line"/>
    </contour>
  </outline>
</glyph>
<glyph name="Y" format="2">
  <advance width="600"/>
  <unicode hex="0059"/>
  <anchor x="396" y="700" name="top"/>
  <outline>
    <contour>
      <point x="208" y="0" type="line"/>
      <point x="285" y="0" type="line"/>
      <point x="344" y="279" type="line"/>
      <point x="676" y="700" type="line"/>
      <point x="592" y="700" type="line"/>
      <point x="322" y="354" type="line"/>
      <point x="198" y="700" type="line"/>
      <point x="118" y="700" type="line"/>
      <point x="269" y="287" type="line"/>
    </contour>
  </outline>
</glyph>
<glyph name="Z" format="2">
  <advance width="600"/>
  <unicode hex="005A"/>
  <anchor x="397" y="700" name="top"/>
  <outline>
    <contour>
      <point x="0" y="0" type="line"/>
      <point x="497" y="0" type="line"/>
      <point x="511" y="67" type="line"/>
      <point x="113" y="65" type="line"/>
      <point x="628" y="646" type="line"/>
      <point x="639" y="700" type="line"/>
      <point x="154" y="700" type="line"/>
      <point x="140" y="633" type="line"/>
      <point x="527" y="635" type="line"/>
      <point x="11" y="54" type="line"/>
    </contour>
  </outline>
</glyph>
<glyph name="grave" format="2">
  <advance width="600"/>
  <unicode hex="0060"/>
  <outline>
    <contour>
      <point x="379" y="604" type="line"/>
      <point x="446" y="604" type="line"/>
      <point x="337" y="726" type="line"/>
      <point x="237" y="726" type="line"/>
    </contour>
  </outline>
</glyph>
<glyph name="d" format="2">
  <advance width="600"/>
  <unicode hex="0064"/>
  <outline>
    <contour>
      <point x="256" y="-7" type="curve"/>
      <point x="311" y="-7"/>
      <point x="359" y="14"/>
      <point x="398" y="52" type="curve"/>
      <point x="387" y="0" type="line"/>
      <point x="458" y="0" type="line"/>
      <point x="613" y="737" type="line"/>
      <point x="539" y="722" type="line"/>
      <point x="473" y="407" type="line"/>
      <point x="439" y="463"/>
      <point x="383" y="494"/>
      <point x="314" y="494" type="curve" smooth="yes"/>
      <point x="175" y="494"/>
      <point x="61" y="368"/>
      <point x="61" y="215" type="curve" smooth="yes"/>
      <point x="61" y="87"/>
      <point x="144" y="-7"/>
    </contour>
    <contour>
      <point x="132" y="221" type="curve" smooth="yes"/>
      <point x="132" y="338"/>
      <point x="216" y="430"/>
      <point x="323" y="430" type="curve" smooth="yes"/>
      <point x="382" y="430"/>
      <point x="436" y="397"/>
      <point x="460" y="348" type="curve"/>
      <point x="410" y="110" type="line"/>
      <point x="374" y="75"/>
      <point x="330" y="55"/>
      <point x="282" y="55" type="curve"/>
      <point x="193" y="55"/>
      <point x="132" y="122"/>
    </contour>
  </outline>
</glyph>
<glyph name="e" format="2">
  <advance width="600"/>
  <unicode hex="0065"/>
  <anchor x="327" y="488" name="top"/>
  <anchor x="358" y="0" name="bottom"/>
  <outline>
    <contour>
      <point x="294" y="-10" type="curve" smooth="yes"/>
      <point x="366" y="-10"/>
      <point x="432" y="17"/>
      <point x="480" y="60" type="curve"/>
      <point x="443" y="110" type="line"/>
      <point x="392" y="70"/>
      <point x="348" y="54"/>
      <point x="297" y="54" type="curve" smooth="yes"/>
      <point x="205" y="54"/>
      <point x="136" y="125"/>
      <point x="136" y="228" type="curve"/>
      <point x="530" y="228" type="line"/>
      <point x="532" y="247"/>
      <point x="533" y="263"/>
      <point x="533" y="281" type="curve" smooth="yes"/>
      <point x="533" y="406"/>
      <point x="447" y="496"/>
      <point x="327" y="496" type="curve" smooth="yes"/>
      <point x="182" y="496"/>
      <point x="66" y="371"/>
      <point x="66" y="219" type="curve" smooth="yes"/>
      <point x="66" y="84"/>
      <point x="163" y="-10"/>
    </contour>
    <contour>
      <point x="143" y="282" type="line"/>
      <point x="166" y="370"/>
      <point x="236" y="433"/>
      <point x="322" y="433" type="curve" smooth="yes"/>
      <point x="405" y="433"/>
      <point x="466" y="369"/>
      <point x="463" y="282" type="curve"/>
    </contour>
  </outline>
</glyph>
<glyph name="i" format="2">
  <advance width="600"/>
  <unicode hex="0069"/>
  <note>
Version created Wed Nov 11 16:21:20 2020
</note>
  <guideline x="389" y="481" angle="0.0" color="0.999,0.001,0.001,0.999" identifier="dzTd0XoNjv"/>
  <anchor x="346" y="488" name="top"/>
  <anchor x="441" y="0" name="bottom"/>
  <outline>
    <contour>
      <point x="373" y="604" type="curve" smooth="yes"/>
      <point x="411" y="604"/>
      <point x="442" y="635"/>
      <point x="442" y="670" type="curve" smooth="yes"/>
      <point x="442" y="702"/>
      <point x="416" y="728"/>
      <point x="384" y="728" type="curve" smooth="yes"/>
      <point x="347" y="728"/>
      <point x="315" y="696"/>
      <point x="315" y="661" type="curve" smooth="yes"/>
      <point x="315" y="629"/>
      <point x="340" y="604"/>
    </contour>
    <contour>
      <point x="371" y="-10" type="curve" smooth="yes"/>
      <point x="402" y="-10"/>
      <point x="436" y="-7"/>
      <point x="477" y="7" type="curve"/>
      <point x="491" y="73" type="line"/>
      <point x="448" y="58"/>
      <point x="419" y="55"/>
      <point x="385" y="55" type="curve" smooth="yes"/>
      <point x="320" y="55"/>
      <point x="293" y="85"/>
      <point x="308" y="153" type="curve" smooth="yes"/>
      <point x="382" y="488" type="line"/>
      <point x="128" y="488" type="line"/>
      <point x="115" y="428" type="line"/>
      <point x="296" y="428" type="line"/>
      <point x="236" y="156" type="line" smooth="yes"/>
      <point x="213" y="50"/>
      <point x="268" y="-10"/>
    </contour>
  </outline>
</glyph>
<glyph name="j" format="2">
  <advance width="600"/>
  <unicode hex="006A"/>
  <guideline x="395" y="113" angle="78.0" identifier="iDpPTQMYma"/>
  <outline>
    <contour>
      <point x="466" y="604" type="curve" smooth="yes"/>
      <point x="504" y="604"/>
      <point x="535" y="635"/>
      <point x="535" y="670" type="curve" smooth="yes"/>
      <point x="535" y="702"/>
      <point x="509" y="728"/>
      <point x="477" y="728" type="curve" smooth="yes"/>
      <point x="440" y="728"/>
      <point x="408" y="696"/>
      <point x="408" y="661" type="curve" smooth="yes"/>
      <point x="408" y="629"/>
      <point x="433" y="604"/>
    </contour>
    <contour>
      <point x="168" y="-219" type="curve" smooth="yes"/>
      <point x="267" y="-219"/>
      <point x="331" y="-181"/>
      <point x="355" y="-68" type="curve" smooth="yes"/>
      <point x="473" y="488" type="line"/>
      <point x="149" y="488" type="line"/>
      <point x="136" y="428" type="line"/>
      <point x="387" y="428" type="line"/>
      <point x="284" y="-55" type="line" smooth="yes"/>
      <point x="268" y="-128"/>
      <point x="235" y="-154"/>
      <point x="169" y="-154" type="curve" smooth="yes"/>
      <point x="121" y="-154"/>
      <point x="75" y="-140"/>
      <point x="20" y="-113" type="curve"/>
      <point x="7" y="-179" type="line"/>
      <point x="57" y="-204"/>
      <point x="112" y="-219"/>
    </contour>
  </outline>
</glyph>
<glyph name="n" format="2">
  <advance width="600"/>
  <unicode hex="006E"/>
  <guideline x="547" y="452" angle="78.0" identifier="ekDTT1ueO0"/>
  <anchor x="363" y="488" name="top"/>
  <anchor x="249" y="0" name="bottom"/>
  <outline>
    <contour>
      <point x="47" y="0" type="line"/>
      <point x="120" y="0" type="line"/>
      <point x="197" y="361" type="line"/>
      <point x="236" y="410"/>
      <point x="286" y="436"/>
      <point x="340" y="436" type="curve" smooth="yes"/>
      <point x="418" y="436"/>
      <point x="458" y="377"/>
      <point x="439" y="287" type="curve" smooth="yes"/>
      <point x="378" y="0" type="line"/>
      <point x="451" y="0" type="line"/>
      <point x="514" y="298" type="line" smooth="yes"/>
      <point x="539" y="415"/>
      <point x="479" y="496"/>
      <point x="370" y="496" type="curve" smooth="yes"/>
      <point x="309" y="496"/>
      <point x="254" y="468"/>
      <point x="208" y="413" type="curve"/>
      <point x="224" y="488" type="line"/>
      <point x="151" y="488" type="line"/>
    </contour>
  </outline>
</glyph>
<glyph name="o" format="2">
  <advance width="600"/>
  <unicode hex="006F"/>
  <anchor x="340" y="484" name="top"/>
  <outline>
    <contour>
      <point x="276" y="-10" type="curve" smooth="yes"/>
      <point x="417" y="-10"/>
      <point x="533" y="116"/>
      <point x="533" y="269" type="curve" smooth="yes"/>
      <point x="533" y="402"/>
      <point x="447" y="496"/>
      <point x="322" y="496" type="curve" smooth="yes"/>
      <point x="181" y="496"/>
      <point x="66" y="371"/>
      <point x="66" y="218" type="curve" smooth="yes"/>
      <point x="66" y="85"/>
      <point x="154" y="-10"/>
    </contour>
    <contour>
      <point x="280" y="55" type="curve" smooth="yes"/>
      <point x="195" y="55"/>
      <point x="137" y="121"/>
      <point x="137" y="217" type="curve" smooth="yes"/>
      <point x="137" y="335"/>
      <point x="218" y="431"/>
      <point x="319" y="431" type="curve" smooth="yes"/>
      <point x="404" y="431"/>
      <point x="461" y="364"/>
      <point x="461" y="267" type="curve" smooth="yes"/>
      <point x="461" y="149"/>
      <point x="381" y="55"/>
    </contour>
  </outline>
</glyph>
<glyph name="r" format="2">
  <advance width="600"/>
  <unicode hex="0072"/>
  <anchor x="425" y="488" name="top"/>
  <anchor x="212" y="0" name="bottom"/>
  <outline>
    <contour>
      <point x="41" y="0" type="line"/>
      <point x="390" y="0" type="line"/>
      <point x="403" y="60" type="line"/>
      <point x="261" y="60" type="line"/>
      <point x="316" y="321" type="line"/>
      <point x="360" y="393"/>
      <point x="417" y="432"/>
      <point x="492" y="432" type="curve" smooth="yes"/>
      <point x="518" y="432"/>
      <point x="548" y="427"/>
      <point x="586" y="406" type="curve"/>
      <point x="600" y="473" type="line"/>
      <point x="570" y="489"/>
      <point x="536" y="496"/>
      <point x="507" y="496" type="curve" smooth="yes"/>
      <point x="428" y="496"/>
      <point x="369" y="453"/>
      <point x="329" y="378" type="curve"/>
      <point x="352" y="488" type="line"/>
      <point x="145" y="488" type="line"/>
      <point x="132" y="428" type="line"/>
      <point x="266" y="428" type="line"/>
      <point x="188" y="60" type="line"/>
      <point x="54" y="60" type="line"/>
    </contour>
  </outline>
</glyph>
<glyph name="u" format="2">
  <advance width="600"/>
  <unicode hex="0075"/>
  <anchor x="351" y="488" name="top"/>
  <anchor x="449" y="0" name="bottom"/>
  <outline>
    <contour>
      <point x="230" y="-8" type="curve" smooth="yes"/>
      <point x="291" y="-8"/>
      <point x="346" y="20"/>
      <point x="392" y="75" type="curve"/>
      <point x="376" y="0" type="line"/>
      <point x="449" y="0" type="line"/>
      <point x="553" y="488" type="line"/>
      <point x="480" y="488" type="line"/>
      <point x="403" y="127" type="line"/>
      <point x="364" y="78"/>
      <point x="314" y="52"/>
      <point x="260" y="52" type="curve" smooth="yes"/>
      <point x="182" y="52"/>
      <point x="142" y="111"/>
      <point x="161" y="201" type="curve" smooth="yes"/>
      <point x="222" y="488" type="line"/>
      <point x="149" y="488" type="line"/>
      <point x="86" y="190" type="line" smooth="yes"/>
      <point x="61" y="73"/>
      <point x="121" y="-8"/>
    </contour>
  </outline>
</glyph>
<glyph name="v" format="2">
  <advance width="600"/>
  <unicode hex="0076"/>
  <outline>
    <contour>
      <point x="211" y="0" type="line"/>
      <point x="281" y="0" type="line"/>
      <point x="597" y="488" type="line"/>
      <point x="515" y="488" type="line"/>
      <point x="265" y="84" type="line"/>
      <point x="180" y="488" type="line"/>
      <point x="107" y="488" type="line"/>
    </contour>
  </outline>
</glyph>
<glyph name="x" format="2">
  <advance width="600"/>
  <unicode hex="0078"/>
  <outline>
    <contour>
      <point x="5" y="0" type="line"/>
      <point x="94" y="0" type="line"/>
      <point x="294" y="200" type="line"/>
      <point x="409" y="0" type="line"/>
      <point x="491" y="0" type="line"/>
      <point x="346" y="247" type="line"/>
      <point x="589" y="488" type="line"/>
      <point x="500" y="488" type="line"/>
      <point x="314" y="302" type="line"/>
      <point x="211" y="488" type="line"/>
      <point x="129" y="488" type="line"/>
      <point x="262" y="256" type="line"/>
    </contour>
  </outline>
</glyph>
<glyph name="y" format="2">
  <advance width="600"/>
  <unicode hex="0079"/>
  <anchor x="351" y="488" name="top"/>
  <outline>
    <contour>
      <point x="57" y="-219" type="curve" smooth="yes"/>
      <point x="124" y="-219"/>
      <point x="164" y="-197"/>
      <point x="213" y="-117" type="curve" smooth="yes"/>
      <point x="583" y="488" type="line"/>
      <point x="504" y="488" type="line"/>
      <point x="256" y="77" type="line"/>
      <point x="182" y="488" type="line"/>
      <point x="107" y="488" type="line"/>
      <point x="200" y="-9" type="line"/>
      <point x="149" y="-93" type="line" smooth="yes"/>
      <point x="123" y="-136"/>
      <point x="103" y="-150"/>
      <point x="65" y="-150" type="curve" smooth="yes"/>
      <point x="45" y="-150"/>
      <point x="21" y="-144"/>
      <point x="-5" y="-132" type="curve"/>
      <point x="-19" y="-201" type="line"/>
      <point x="6" y="-212"/>
      <point x="33" y="-219"/>
    </contour>
  </outline>
</glyph>
<glyph name="z" format="2">
  <advance width="600"/>
  <unicode hex="007A"/>
  <anchor x="355" y="488" name="top"/>
  <outline>
    <contour>
      <point x="45" y="0" type="line"/>
      <point x="451" y="0" type="line"/>
      <point x="465" y="66" type="line"/>
      <point x="155" y="65" type="line"/>
      <point x="542" y="431" type="line"/>
      <point x="554" y="488" type="line"/>
      <point x="154" y="488" type="line"/>
      <point x="141" y="421" type="line"/>
      <point x="442" y="422" type="line"/>
      <point x="57" y="58" type="line"/>
    </contour>
  </outline>
</glyph>
<glyph name="braceleft" format="2">
  <advance width="600"/>
  <unicode hex="007B"/>
  <outline>
    <contour>
      <point x="256" y="-219" type="curve" smooth="yes"/>
      <point x="295" y="-219"/>
      <point x="330" y="-209"/>
      <point x="370" y="-189" type="curve"/>
      <point x="360" y="-134" type="line"/>
      <point x="329" y="-149"/>
      <point x="293" y="-158"/>
      <point x="264" y="-158" type="curve" smooth="yes"/>
      <point x="220" y="-158"/>
      <point x="195" y="-133"/>
      <point x="195" y="-98" type="curve" smooth="yes"/>
      <point x="195" y="-25"/>
      <point x="335" y="70"/>
      <point x="335" y="154" type="curve" smooth="yes"/>
      <point x="335" y="195"/>
      <point x="309" y="229"/>
      <point x="269" y="244" type="curve"/>
      <point x="330" y="258"/>
      <point x="379" y="305"/>
      <point x="379" y="373" type="curve" smooth="yes"/>
      <point x="379" y="438"/>
      <point x="329" y="516"/>
      <point x="329" y="569" type="curve" smooth="yes"/>
      <point x="329" y="615"/>
      <point x="361" y="651"/>
      <point x="420" y="651" type="curve" smooth="yes"/>
      <point x="456" y="651"/>
      <point x="489" y="639"/>
      <point x="525" y="617" type="curve"/>
      <point x="553" y="672" type="line"/>
      <point x="509" y="699"/>
      <point x="467" y="711"/>
      <point x="419" y="711" type="curve" smooth="yes"/>
      <point x="316" y="711"/>
      <point x="262" y="645"/>
      <point x="262" y="569" type="curve" smooth="yes"/>
      <point x="262" y="498"/>
      <point x="315" y="425"/>
      <point x="315" y="369" type="curve" smooth="yes"/>
      <point x="315" y="316"/>
      <point x="271" y="279"/>
      <point x="213" y="279" type="curve" smooth="yes"/>
      <point x="120" y="279" type="line"/>
      <point x="107" y="218" type="line"/>
      <point x="201" y="218" type="line" smooth="yes"/>
      <point x="245" y="218"/>
      <point x="272" y="192"/>
      <point x="272" y="157" type="curve" smooth="yes"/>
      <point x="272" y="82"/>
      <point x="122" y="-6"/>
      <point x="122" y="-111" type="curve" smooth="yes"/>
      <point x="122" y="-173"/>
      <point x="170" y="-219"/>
    </contour>
  </outline>
</glyph>
<glyph name="exclamdown" format="2">
  <advance width="600"/>
  <unicode hex="00A1"/>
  <outline>
    <contour>
      <point x="342" y="302" type="line"/>
      <point x="285" y="302" type="line"/>
      <point x="165" y="-210" type="line"/>
      <point x="240" y="-210" type="line"/>
    </contour>
    <contour>
      <point x="352" y="526" type="curve" smooth="yes"/>
      <point x="315" y="526"/>
      <point x="282" y="491"/>
      <point x="282" y="454" type="curve" smooth="yes"/>
      <point x="282" y="421"/>
      <point x="307" y="396"/>
      <point x="339" y="396" type="curve" smooth="yes"/>
      <point x="377" y="396"/>
      <point x="410" y="430"/>
      <point x="410" y="468" type="curve" smooth="yes"/>
      <point x="410" y="501"/>
      <point x="385" y="526"/>
    </contour>
  </outline>
</glyph>
<glyph name="yen" format="2">
  <advance width="600"/>
  <unicode hex="00A5"/>
  <outline>
    <contour>
      <point x="208" y="0" type="line"/>
      <point x="285" y="0" type="line"/>
      <point x="313" y="134" type="line"/>
      <point x="487" y="134" type="line"/>
      <point x="498" y="188" type="line"/>
      <point x="325" y="188" type="line"/>
      <point x="341" y="263" type="line"/>
      <point x="515" y="263" type="line"/>
      <point x="525" y="317" type="line"/>
      <point x="374" y="317" type="line"/>
      <point x="676" y="700" type="line"/>
      <point x="592" y="700" type="line"/>
      <point x="322" y="354" type="line"/>
      <point x="198" y="700" type="line"/>
      <point x="118" y="700" type="line"/>
      <point x="258" y="317" type="line"/>
      <point x="104" y="317" type="line"/>
      <point x="94" y="263" type="line"/>
      <point x="264" y="263" type="line"/>
      <point x="248" y="188" type="line"/>
      <point x="77" y="188" type="line"/>
      <point x="66" y="134" type="line"/>
      <point x="236" y="134" type="line"/>
    </contour>
  </outline>
</glyph>
<glyph name="uni00A6" format="2">
  <advance width="600"/>
  <unicode hex="00A6"/>
  <outline>
    <contour>
      <point x="275" y="287" type="line"/>
      <point x="343" y="287" type="line"/>
      <point x="431" y="700" type="line"/>
      <point x="363" y="700" type="line"/>
    </contour>
    <contour>
      <point x="170" y="-209" type="line"/>
      <point x="238" y="-209" type="line"/>
      <point x="326" y="204" type="line"/>
      <point x="258" y="204" type="line"/>
    </contour>
  </outline>
</glyph>
<glyph name="copyright" format="2">
  <advance width="600"/>
  <unicode hex="00A9"/>
  <outline>
    <contour>
      <point x="311" y="165" type="curve" smooth="yes"/>
      <point x="352" y="165"/>
      <point x="395" y="181"/>
      <point x="430" y="210" type="curve"/>
      <point x="405" y="252" type="line"/>
      <point x="374" y="228"/>
      <point x="346" y="217"/>
      <point x="318" y="217" type="curve" smooth="yes"/>
      <point x="258" y="217"/>
      <point x="219" y="261"/>
      <point x="219" y="328" type="curve" smooth="yes"/>
      <point x="219" y="413"/>
      <point x="275" y="483"/>
      <point x="343" y="483" type="curve" smooth="yes"/>
      <point x="378" y="483"/>
      <point x="410" y="463"/>
      <point x="436" y="426" type="curve"/>
      <point x="477" y="462" type="line"/>
      <point x="444" y="509"/>
      <point x="397" y="535"/>
      <point x="342" y="535" type="curve" smooth="yes"/>
      <point x="247" y="535"/>
      <point x="165" y="439"/>
      <point x="165" y="327" type="curve" smooth="yes"/>
      <point x="165" y="235"/>
      <point x="228" y="165"/>
    </contour>
    <contour>
      <point x="281" y="-11" type="curve" smooth="yes"/>
      <point x="460" y="-11"/>
      <point x="608" y="179"/>
      <point x="608" y="418" type="curve" smooth="yes"/>
      <point x="608" y="595"/>
      <point x="502" y="711"/>
      <point x="363" y="711" type="curve" smooth="yes"/>
      <point x="184" y="711"/>
      <point x="36" y="521"/>
      <point x="36" y="282" type="curve" smooth="yes"/>
      <point x="36" y="105"/>
      <point x="142" y="-11"/>
    </contour>
    <contour>
      <point x="284" y="33" type="curve" smooth="yes"/>
      <point x="172" y="33"/>
      <point x="83" y="132"/>
      <point x="83" y="289" type="curve" smooth="yes"/>
      <point x="83" y="500"/>
      <point x="215" y="667"/>
      <point x="360" y="667" type="curve" smooth="yes"/>
      <point x="472" y="667"/>
      <point x="561" y="568"/>
      <point x="561" y="411" type="curve" smooth="yes"/>
      <point x="561" y="200"/>
      <point x="429" y="33"/>
    </contour>
  </outline>
</glyph>
<glyph name="uni00AC" format="2">
  <advance width="600"/>
  <unicode hex="00AC"/>
  <outline>
    <contour>
      <point x="410" y="0" type="line"/>
      <point x="474" y="0" type="line"/>
      <point x="541" y="314" type="line"/>
      <point x="92" y="314" type="line"/>
      <point x="78" y="254" type="line"/>
      <point x="464" y="254" type="line"/>
    </contour>
  </outline>
</glyph>
<glyph name="registered" format="2">
  <advance width="600"/>
  <unicode hex="00AE"/>
  <outline>
    <contour>
      <point x="274" y="417" type="line"/>
      <point x="306" y="417" type="line"/>
      <point x="321" y="488" type="line"/>
      <point x="354" y="488" type="line"/>
      <point x="379" y="417" type="line"/>
      <point x="413" y="417" type="line"/>
      <point x="388" y="492" type="line"/>
      <point x="414" y="502"/>
      <point x="431" y="526"/>
      <point x="431" y="552" type="curve" smooth="yes"/>
      <point x="431" y="586"/>
      <point x="412" y="605"/>
      <point x="378" y="605" type="curve" smooth="yes"/>
      <point x="314" y="605" type="line"/>
    </contour>
    <contour>
      <point x="371" y="577" type="line" smooth="yes"/>
      <point x="390" y="577"/>
      <point x="398" y="568"/>
      <point x="398" y="549" type="curve" smooth="yes"/>
      <point x="398" y="528"/>
      <point x="385" y="514"/>
      <point x="364" y="514" type="curve" smooth="yes"/>
      <point x="327" y="514" type="line"/>
      <point x="341" y="577" type="line"/>
    </contour>
    <contour>
      <point x="338" y="309" type="curve" smooth="yes"/>
      <point x="451" y="309"/>
      <point x="546" y="411"/>
      <point x="546" y="533" type="curve" smooth="yes"/>
      <point x="546" y="635"/>
      <point x="477" y="711"/>
      <point x="377" y="711" type="curve" smooth="yes"/>
      <point x="264" y="711"/>
      <point x="169" y="609"/>
      <point x="169" y="487" type="curve" smooth="yes"/>
      <point x="169" y="385"/>
      <point x="238" y="309"/>
    </contour>
    <contour>
      <point x="340" y="343" type="curve" smooth="yes"/>
      <point x="259" y="343"/>
      <point x="205" y="401"/>
      <point x="205" y="487" type="curve" smooth="yes"/>
      <point x="205" y="591"/>
      <point x="282" y="677"/>
      <point x="375" y="677" type="curve" smooth="yes"/>
      <point x="456" y="677"/>
      <point x="510" y="619"/>
      <point x="510" y="533" type="curve" smooth="yes"/>
      <point x="510" y="429"/>
      <point x="433" y="343"/>
    </contour>
  </outline>
</glyph>
<glyph name="plusminus" format="2">
  <advance width="600"/>
  <unicode hex="00B1"/>
  <outline>
    <contour>
      <point x="50" y="-1" type="line"/>
      <point x="445" y="-1" type="line"/>
      <point x="458" y="60" type="line"/>
      <point x="63" y="60" type="line"/>
    </contour>
    <contour>
      <point x="255" y="173" type="line"/>
      <point x="315" y="173" type="line"/>
      <point x="352" y="349" type="line"/>
      <point x="518" y="349" type="line"/>
      <point x="532" y="409" type="line"/>
      <point x="365" y="409" type="line"/>
      <point x="402" y="585" type="line"/>
      <point x="342" y="585" type="line"/>
      <point x="305" y="409" type="line"/>
      <point x="138" y="409" type="line"/>
      <point x="124" y="349" type="line"/>
      <point x="292" y="349" type="line"/>
    </contour>
  </outline>
</glyph>
<glyph name="acute" format="2">
  <advance width="600"/>
  <unicode hex="00B4"/>
  <outline>
    <contour>
      <point x="277" y="604" type="line"/>
      <point x="347" y="604" type="line"/>
      <point x="513" y="726" type="line"/>
      <point x="412" y="726" type="line"/>
    </contour>
  </outline>
</glyph>
<glyph name="uni00B5" format="2">
  <advance width="600"/>
  <unicode hex="00B5"/>
  <outline>
    <contour>
      <point x="0" y="-209" type="line"/>
      <point x="73" y="-209" type="line"/>
      <point x="124" y="32" type="line"/>
      <point x="148" y="7"/>
      <point x="184" y="-8"/>
      <point x="230" y="-8" type="curve" smooth="yes"/>
      <point x="291" y="-8"/>
      <point x="346" y="20"/>
      <point x="392" y="75" type="curve"/>
      <point x="376" y="0" type="line"/>
      <point x="449" y="0" type="line"/>
      <point x="553" y="488" type="line"/>
      <point x="480" y="488" type="line"/>
      <point x="403" y="127" type="line"/>
      <point x="364" y="78"/>
      <point x="314" y="52"/>
      <point x="260" y="52" type="curve" smooth="yes"/>
      <point x="182" y="52"/>
      <point x="142" y="109"/>
      <point x="159" y="197" type="curve"/>
      <point x="221" y="488" type="line"/>
      <point x="148" y="488" type="line"/>
    </contour>
  </outline>
</glyph>
<glyph name="paragraph" format="2">
  <advance width="600"/>
  <unicode hex="00B6"/>
  <outline>
    <contour>
      <point x="248" y="0" type="line"/>
      <point x="313" y="0" type="line"/>
      <point x="374" y="288" type="line"/>
      <point x="487" y="288" type="line"/>
      <point x="426" y="0" type="line"/>
      <point x="491" y="0" type="line"/>
      <point x="640" y="700" type="line"/>
      <point x="335" y="700" type="line" smooth="yes"/>
      <point x="187" y="700"/>
      <point x="92" y="603"/>
      <point x="92" y="468" type="curve" smooth="yes"/>
      <point x="92" y="360"/>
      <point x="166" y="288"/>
      <point x="293" y="288" type="curve" smooth="yes"/>
      <point x="309" y="288" type="line"/>
    </contour>
    <contour>
      <point x="501" y="351" type="line"/>
      <point x="388" y="351" type="line"/>
      <point x="448" y="637" type="line"/>
      <point x="562" y="637" type="line"/>
    </contour>
    <contour>
      <point x="284" y="351" type="line" smooth="yes"/>
      <point x="207" y="351"/>
      <point x="159" y="398"/>
      <point x="159" y="476" type="curve" smooth="yes"/>
      <point x="159" y="570"/>
      <point x="223" y="637"/>
      <point x="314" y="637" type="curve" smooth="yes"/>
      <point x="383" y="637" type="line"/>
      <point x="323" y="351" type="line"/>
    </contour>
  </outline>
</glyph>
<glyph name="ordmasculine" format="2">
  <advance width="600"/>
  <unicode hex="00BA"/>
  <outline>
    <contour>
      <point x="339" y="317" type="curve" smooth="yes"/>
      <point x="453" y="317"/>
      <point x="552" y="417"/>
      <point x="552" y="536" type="curve" smooth="yes"/>
      <point x="552" y="636"/>
      <point x="477" y="711"/>
      <point x="375" y="711" type="curve" smooth="yes"/>
      <point x="261" y="711"/>
      <point x="162" y="611"/>
      <point x="162" y="492" type="curve" smooth="yes"/>
      <point x="162" y="392"/>
      <point x="237" y="317"/>
    </contour>
    <contour>
      <point x="342" y="372" type="curve" smooth="yes"/>
      <point x="273" y="372"/>
      <point x="224" y="426"/>
      <point x="224" y="497" type="curve" smooth="yes"/>
      <point x="224" y="577"/>
      <point x="285" y="656"/>
      <point x="372" y="656" type="curve" smooth="yes"/>
      <point x="441" y="656"/>
      <point x="490" y="602"/>
      <point x="490" y="531" type="curve" smooth="yes"/>
      <point x="490" y="452"/>
      <point x="429" y="372"/>
    </contour>
  </outline>
</glyph>
<glyph name="guillemotright" format="2">
  <advance width="600"/>
  <unicode hex="00BB"/>
  <outline>
    <contour>
      <point x="400" y="488" type="line"/>
      <point x="327" y="488" type="line"/>
      <point x="499" y="249" type="line"/>
      <point x="222" y="0" type="line"/>
      <point x="305" y="0" type="line"/>
      <point x="580" y="243" type="line"/>
    </contour>
    <contour>
      <point x="176" y="488" type="line"/>
      <point x="103" y="488" type="line"/>
      <point x="275" y="249" type="line"/>
      <point x="-2" y="0" type="line"/>
      <point x="81" y="0" type="line"/>
      <point x="356" y="243" type="line"/>
    </contour>
  </outline>
</glyph>
<glyph name="Thorn" format="2">
  <advance width="600"/>
  <unicode hex="00DE"/>
  <outline>
    <contour>
      <point x="43" y="0" type="line"/>
      <point x="120" y="0" type="line"/>
      <point x="150" y="143" type="line"/>
      <point x="340" y="143" type="line" smooth="yes"/>
      <point x="482" y="143"/>
      <point x="585" y="241"/>
      <point x="585" y="377" type="curve" smooth="yes"/>
      <point x="585" y="488"/>
      <point x="509" y="557"/>
      <point x="388" y="557" type="curve" smooth="yes"/>
      <point x="239" y="557" type="line"/>
      <point x="269" y="700" type="line"/>
      <point x="192" y="700" type="line"/>
    </contour>
    <contour>
      <point x="165" y="210" type="line"/>
      <point x="224" y="490" type="line"/>
      <point x="375" y="490" type="line" smooth="yes"/>
      <point x="459" y="490"/>
      <point x="510" y="446"/>
      <point x="510" y="373" type="curve" smooth="yes"/>
      <point x="510" y="276"/>
      <point x="439" y="210"/>
      <point x="337" y="210" type="curve" smooth="yes"/>
    </contour>
  </outline>
</glyph>
<glyph name="germandbls" format="2">
  <advance width="600"/>
  <unicode hex="00DF"/>
  <outline>
    <contour>
      <point x="366" y="-11" type="curve"/>
      <point x="472" y="-11"/>
      <point x="542" y="56"/>
      <point x="542" y="136" type="curve" smooth="yes"/>
      <point x="542" y="296"/>
      <point x="345" y="282"/>
      <point x="345" y="357" type="curve" smooth="yes"/>
      <point x="345" y="428"/>
      <point x="542" y="435"/>
      <point x="542" y="580" type="curve" smooth="yes"/>
      <point x="542" y="676"/>
      <point x="464" y="737"/>
      <point x="368" y="737" type="curve" smooth="yes"/>
      <point x="239" y="737"/>
      <point x="161" y="665"/>
      <point x="134" y="536" type="curve" smooth="yes"/>
      <point x="20" y="0" type="line"/>
      <point x="93" y="0" type="line"/>
      <point x="205" y="527" type="line" smooth="yes"/>
      <point x="226" y="625"/>
      <point x="281" y="674"/>
      <point x="368" y="674" type="curve" smooth="yes"/>
      <point x="433" y="674"/>
      <point x="475" y="633"/>
      <point x="475" y="580" type="curve" smooth="yes"/>
      <point x="475" y="471"/>
      <point x="279" y="480"/>
      <point x="279" y="356" type="curve" smooth="yes"/>
      <point x="279" y="228"/>
      <point x="475" y="250"/>
      <point x="475" y="137" type="curve" smooth="yes"/>
      <point x="475" y="85"/>
      <point x="432" y="47"/>
      <point x="367" y="47" type="curve"/>
      <point x="314" y="47"/>
      <point x="266" y="67"/>
      <point x="238" y="108" type="curve"/>
      <point x="192" y="65" type="line"/>
      <point x="233" y="13"/>
      <point x="298" y="-11"/>
    </contour>
  </outline>
</glyph>
<glyph name="eth" format="2">
  <advance width="600"/>
  <unicode hex="00F0"/>
  <outline>
    <contour>
      <point x="270" y="-10" type="curve" smooth="yes"/>
      <point x="435" y="-10"/>
      <point x="552" y="152"/>
      <point x="552" y="384" type="curve" smooth="yes"/>
      <point x="552" y="475"/>
      <point x="531" y="553"/>
      <point x="491" y="616" type="curve"/>
      <point x="592" y="666" type="line"/>
      <point x="575" y="711" type="line"/>
      <point x="461" y="655" type="line"/>
      <point x="431" y="688"/>
      <point x="395" y="716"/>
      <point x="351" y="737" type="curve"/>
      <point x="312" y="687" type="line"/>
      <point x="346" y="672"/>
      <point x="376" y="652"/>
      <point x="400" y="626" type="curve"/>
      <point x="308" y="581" type="line"/>
      <point x="326" y="535" type="line"/>
      <point x="432" y="587" type="line"/>
      <point x="474" y="525"/>
      <point x="494" y="443"/>
      <point x="489" y="348" type="curve"/>
      <point x="468" y="424"/>
      <point x="398" y="476"/>
      <point x="307" y="476" type="curve" smooth="yes"/>
      <point x="170" y="476"/>
      <point x="62" y="358"/>
      <point x="62" y="207" type="curve" smooth="yes"/>
      <point x="62" y="80"/>
      <point x="148" y="-10"/>
    </contour>
    <contour>
      <point x="274" y="54" type="curve" smooth="yes"/>
      <point x="190" y="54"/>
      <point x="130" y="119"/>
      <point x="130" y="212" type="curve" smooth="yes"/>
      <point x="130" y="322"/>
      <point x="214" y="417"/>
      <point x="314" y="417" type="curve" smooth="yes"/>
      <point x="398" y="417"/>
      <point x="460" y="350"/>
      <point x="460" y="260" type="curve" smooth="yes"/>
      <point x="460" y="151"/>
      <point x="374" y="54"/>
    </contour>
  </outline>
</glyph>
<glyph name="divide" format="2">
  <advance width="600"/>
  <unicode hex="00F7"/>
  <outline>
    <contour>
      <point x="120" y="327" type="line"/>
      <point x="514" y="327" type="line"/>
      <point x="527" y="387" type="line"/>
      <point x="133" y="387" type="line"/>
    </contour>
    <contour>
      <point x="281" y="121" type="curve" smooth="yes"/>
      <point x="313" y="121"/>
      <point x="339" y="148"/>
      <point x="339" y="177" type="curve" smooth="yes"/>
      <point x="339" y="205"/>
      <point x="317" y="227"/>
      <point x="290" y="227" type="curve" smooth="yes"/>
      <point x="259" y="227"/>
      <point x="231" y="200"/>
      <point x="231" y="170" type="curve" smooth="yes"/>
      <point x="231" y="143"/>
      <point x="253" y="121"/>
    </contour>
    <contour>
      <point x="359" y="489" type="curve" smooth="yes"/>
      <point x="391" y="489"/>
      <point x="417" y="516"/>
      <point x="417" y="545" type="curve" smooth="yes"/>
      <point x="417" y="573"/>
      <point x="395" y="595"/>
      <point x="368" y="595" type="curve" smooth="yes"/>
      <point x="337" y="595"/>
      <point x="309" y="568"/>
      <point x="309" y="538" type="curve" smooth="yes"/>
      <point x="309" y="511"/>
      <point x="331" y="489"/>
    </contour>
  </outline>
</glyph>
<glyph name="oslash" format="2">
  <advance width="600"/>
  <unicode hex="00F8"/>
  <outline>
    <contour>
      <point x="276" y="-10" type="curve" smooth="yes"/>
      <point x="417" y="-10"/>
      <point x="533" y="116"/>
      <point x="533" y="269" type="curve" smooth="yes"/>
      <point x="533" y="323"/>
      <point x="519" y="370"/>
      <point x="494" y="407" type="curve"/>
      <point x="572" y="488" type="line"/>
      <point x="497" y="488" type="line"/>
      <point x="458" y="448" type="line"/>
      <point x="423" y="478"/>
      <point x="376" y="496"/>
      <point x="322" y="496" type="curve" smooth="yes"/>
      <point x="181" y="496"/>
      <point x="66" y="371"/>
      <point x="66" y="218" type="curve" smooth="yes"/>
      <point x="66" y="165"/>
      <point x="80" y="117"/>
      <point x="105" y="80" type="curve"/>
      <point x="28" y="0" type="line"/>
      <point x="103" y="0" type="line"/>
      <point x="141" y="39" type="line"/>
      <point x="176" y="8"/>
      <point x="223" y="-10"/>
    </contour>
    <contour>
      <point x="155" y="132" type="line"/>
      <point x="143" y="156"/>
      <point x="137" y="185"/>
      <point x="137" y="217" type="curve" smooth="yes"/>
      <point x="137" y="335"/>
      <point x="218" y="431"/>
      <point x="319" y="431" type="curve" smooth="yes"/>
      <point x="355" y="431"/>
      <point x="386" y="419"/>
      <point x="410" y="397" type="curve"/>
    </contour>
    <contour>
      <point x="280" y="55" type="curve" smooth="yes"/>
      <point x="244" y="55"/>
      <point x="212" y="67"/>
      <point x="188" y="89" type="curve"/>
      <point x="443" y="353" type="line"/>
      <point x="455" y="329"/>
      <point x="461" y="300"/>
      <point x="461" y="267" type="curve" smooth="yes"/>
      <point x="461" y="149"/>
      <point x="381" y="55"/>
    </contour>
  </outline>
</glyph>
<glyph name="Aogonek" format="2">
  <advance width="600"/>
  <unicode hex="0104"/>
  <outline>
    <contour>
      <point x="-36" y="0" type="line"/>
      <point x="46" y="0" type="line"/>
      <point x="151" y="195" type="line"/>
      <point x="431" y="195" type="line"/>
      <point x="453" y="0" type="line"/>
      <point x="472" y="0" type="line"/>
      <point x="390" y="-48"/>
      <point x="350" y="-99"/>
      <point x="350" y="-154" type="curve" smooth="yes"/>
      <point x="350" y="-201"/>
      <point x="388" y="-232"/>
      <point x="445" y="-232" type="curve" smooth="yes"/>
      <point x="469" y="-232"/>
      <point x="493" y="-227"/>
      <point x="511" y="-218" type="curve"/>
      <point x="507" y="-178" type="line"/>
      <point x="494" y="-183"/>
      <point x="475" y="-187"/>
      <point x="461" y="-187" type="curve" smooth="yes"/>
      <point x="426" y="-187"/>
      <point x="401" y="-168"/>
      <point x="401" y="-139" type="curve" smooth="yes"/>
      <point x="401" y="-92"/>
      <point x="443" y="-48"/>
      <point x="532" y="0" type="curve"/>
      <point x="447" y="700" type="line"/>
      <point x="348" y="700" type="line"/>
    </contour>
    <contour>
      <point x="184" y="256" type="line"/>
      <point x="381" y="622" type="line"/>
      <point x="424" y="256" type="line"/>
    </contour>
  </outline>
</glyph>
<glyph name="dcaron" format="2">
  <advance width="600"/>
  <unicode hex="010F"/>
  <outline>
    <contour>
      <point x="206" y="-7" type="curve" smooth="yes"/>
      <point x="256" y="-7"/>
      <point x="301" y="11"/>
      <point x="338" y="43" type="curve"/>
      <point x="329" y="0" type="line"/>
      <point x="400" y="0" type="line"/>
      <point x="556" y="737" type="line"/>
      <point x="482" y="722" type="line"/>
      <point x="417" y="416" type="line"/>
      <point x="384" y="465"/>
      <point x="335" y="494"/>
      <point x="273" y="494" type="curve" smooth="yes"/>
      <point x="140" y="494"/>
      <point x="31" y="366"/>
      <point x="31" y="209" type="curve" smooth="yes"/>
      <point x="31" y="85"/>
      <point x="106" y="-7"/>
    </contour>
    <contour>
      <point x="232" y="55" type="curve" smooth="yes"/>
      <point x="155" y="55"/>
      <point x="102" y="120"/>
      <point x="102" y="215" type="curve" smooth="yes"/>
      <point x="102" y="336"/>
      <point x="179" y="430"/>
      <point x="277" y="430" type="curve" smooth="yes"/>
      <point x="331" y="430"/>
      <point x="379" y="402"/>
      <point x="405" y="359" type="curve"/>
      <point x="350" y="101" type="line"/>
      <point x="316" y="71"/>
      <point x="275" y="55"/>
    </contour>
    <contour>
      <point x="596" y="527" type="line"/>
      <point x="654" y="527" type="line"/>
      <point x="720" y="737" type="line"/>
      <point x="645" y="722" type="line"/>
    </contour>
  </outline>
</glyph>
<glyph name="Dcroat" format="2">
  <advance width="600"/>
  <unicode hex="0110"/>
  <guideline x="316" y="393" angle="78.0" identifier="lSU6gAvYy4"/>
  <outline>
    <contour>
      <point x="40" y="0" type="line"/>
      <point x="240" y="0" type="line" smooth="yes"/>
      <point x="439" y="0"/>
      <point x="584" y="180"/>
      <point x="584" y="415" type="curve" smooth="yes"/>
      <point x="584" y="609"/>
      <point x="474" y="700"/>
      <point x="322" y="700" type="curve" smooth="yes"/>
      <point x="189" y="700" type="line"/>
      <point x="122" y="383" type="line"/>
      <point x="43" y="383" type="line"/>
      <point x="29" y="322" type="line"/>
      <point x="109" y="322" type="line"/>
    </contour>
    <contour>
      <point x="131" y="67" type="line"/>
      <point x="186" y="322" type="line"/>
      <point x="300" y="322" type="line"/>
      <point x="313" y="383" type="line"/>
      <point x="199" y="383" type="line"/>
      <point x="252" y="633" type="line"/>
      <point x="322" y="633" type="line" smooth="yes"/>
      <point x="438" y="633"/>
      <point x="508" y="556"/>
      <point x="508" y="409" type="curve" smooth="yes"/>
      <point x="508" y="221"/>
      <point x="401" y="67"/>
      <point x="238" y="67" type="curve" smooth="yes"/>
    </contour>
  </outline>
</glyph>
<glyph name="dcroat" format="2">
  <advance width="600"/>
  <unicode hex="0111"/>
  <outline>
    <contour>
      <point x="256" y="-7" type="curve"/>
      <point x="311" y="-7"/>
      <point x="359" y="14"/>
      <point x="398" y="52" type="curve"/>
      <point x="387" y="0" type="line"/>
      <point x="458" y="0" type="line"/>
      <point x="579" y="573" type="line"/>
      <point x="652" y="573" type="line"/>
      <point x="664" y="627" type="line"/>
      <point x="590" y="627" type="line"/>
      <point x="613" y="737" type="line"/>
      <point x="539" y="722" type="line"/>
      <point x="519" y="627" type="line"/>
      <point x="374" y="627" type="line"/>
      <point x="362" y="573" type="line"/>
      <point x="508" y="573" type="line"/>
      <point x="473" y="407" type="line"/>
      <point x="439" y="463"/>
      <point x="383" y="494"/>
      <point x="314" y="494" type="curve" smooth="yes"/>
      <point x="175" y="494"/>
      <point x="61" y="368"/>
      <point x="61" y="215" type="curve" smooth="yes"/>
      <point x="61" y="87"/>
      <point x="144" y="-7"/>
    </contour>
    <contour>
      <point x="282" y="55" type="curve"/>
      <point x="193" y="55"/>
      <point x="132" y="122"/>
      <point x="132" y="221" type="curve" smooth="yes"/>
      <point x="132" y="338"/>
      <point x="216" y="430"/>
      <point x="323" y="430" type="curve" smooth="yes"/>
      <point x="382" y="430"/>
      <point x="436" y="397"/>
      <point x="460" y="348" type="curve"/>
      <point x="410" y="110" type="line"/>
      <point x="374" y="75"/>
      <point x="330" y="55"/>
    </contour>
  </outline>
</glyph>
<glyph name="eogonek" format="2">
  <advance width="600"/>
  <unicode hex="0119"/>
  <outline>
    <contour>
      <point x="271" y="-232" type="curve" smooth="yes"/>
      <point x="295" y="-232"/>
      <point x="319" y="-227"/>
      <point x="337" y="-218" type="curve"/>
      <point x="333" y="-178" type="line"/>
      <point x="320" y="-183"/>
      <point x="301" y="-187"/>
      <point x="287" y="-187" type="curve" smooth="yes"/>
      <point x="252" y="-187"/>
      <point x="227" y="-168"/>
      <point x="227" y="-139" type="curve" smooth="yes"/>
      <point x="227" y="-93"/>
      <point x="266" y="-51"/>
      <point x="350" y="-5" type="curve"/>
      <point x="400" y="5"/>
      <point x="445" y="28"/>
      <point x="480" y="60" type="curve"/>
      <point x="443" y="110" type="line"/>
      <point x="392" y="70"/>
      <point x="348" y="54"/>
      <point x="297" y="54" type="curve" smooth="yes"/>
      <point x="205" y="54"/>
      <point x="136" y="125"/>
      <point x="136" y="228" type="curve"/>
      <point x="530" y="228" type="line"/>
      <point x="532" y="247"/>
      <point x="533" y="263"/>
      <point x="533" y="281" type="curve" smooth="yes"/>
      <point x="533" y="406"/>
      <point x="447" y="496"/>
      <point x="327" y="496" type="curve" smooth="yes"/>
      <point x="182" y="496"/>
      <point x="66" y="371"/>
      <point x="66" y="219" type="curve" smooth="yes"/>
      <point x="66" y="88"/>
      <point x="157" y="-4"/>
      <point x="282" y="-10" type="curve"/>
      <point x="211" y="-55"/>
      <point x="176" y="-103"/>
      <point x="176" y="-154" type="curve" smooth="yes"/>
      <point x="176" y="-201"/>
      <point x="214" y="-232"/>
    </contour>
    <contour>
      <point x="143" y="282" type="line"/>
      <point x="166" y="370"/>
      <point x="236" y="433"/>
      <point x="322" y="433" type="curve" smooth="yes"/>
      <point x="405" y="433"/>
      <point x="466" y="369"/>
      <point x="463" y="282" type="curve"/>
    </contour>
  </outline>
</glyph>
<glyph name="hbar" format="2">
  <advance width="600"/>
  <unicode hex="0127"/>
  <outline>
    <contour>
      <point x="47" y="0" type="line"/>
      <point x="120" y="0" type="line"/>
      <point x="196" y="361" type="line"/>
      <point x="236" y="410"/>
      <point x="286" y="436"/>
      <point x="340" y="436" type="curve" smooth="yes"/>
      <point x="418" y="436"/>
      <point x="458" y="377"/>
      <point x="439" y="287" type="curve" smooth="yes"/>
      <point x="378" y="0" type="line"/>
      <point x="451" y="0" type="line"/>
      <point x="514" y="298" type="line" smooth="yes"/>
      <point x="539" y="415"/>
      <point x="479" y="496"/>
      <point x="370" y="496" type="curve" smooth="yes"/>
      <point x="308" y="496"/>
      <point x="253" y="468"/>
      <point x="207" y="412" type="curve"/>
      <point x="241" y="573" type="line"/>
      <point x="385" y="573" type="line"/>
      <point x="396" y="626" type="line"/>
      <point x="252" y="626" type="line"/>
      <point x="276" y="737" type="line"/>
      <point x="200" y="722" type="line"/>
      <point x="180" y="626" type="line"/>
      <point x="106" y="626" type="line"/>
      <point x="95" y="573" type="line"/>
      <point x="168" y="573" type="line"/>
    </contour>
  </outline>
</glyph>
<glyph name="Iogonek" format="2">
  <advance width="600"/>
  <unicode hex="012E"/>
  <outline>
    <contour>
      <point x="28" y="0" type="line"/>
      <point x="408" y="0" type="line"/>
      <point x="326" y="-48"/>
      <point x="286" y="-99"/>
      <point x="286" y="-154" type="curve" smooth="yes"/>
      <point x="286" y="-201"/>
      <point x="324" y="-232"/>
      <point x="381" y="-232" type="curve" smooth="yes"/>
      <point x="405" y="-232"/>
      <point x="429" y="-227"/>
      <point x="447" y="-218" type="curve"/>
      <point x="443" y="-178" type="line"/>
      <point x="430" y="-183"/>
      <point x="411" y="-187"/>
      <point x="397" y="-187" type="curve" smooth="yes"/>
      <point x="362" y="-187"/>
      <point x="337" y="-168"/>
      <point x="337" y="-139" type="curve" smooth="yes"/>
      <point x="337" y="-92"/>
      <point x="379" y="-48"/>
      <point x="468" y="0" type="curve"/>
      <point x="482" y="68" type="line"/>
      <point x="301" y="68" type="line"/>
      <point x="422" y="632" type="line"/>
      <point x="602" y="632" type="line"/>
      <point x="617" y="700" type="line"/>
      <point x="177" y="700" type="line"/>
      <point x="162" y="632" type="line"/>
      <point x="345" y="632" type="line"/>
      <point x="224" y="68" type="line"/>
      <point x="42" y="68" type="line"/>
    </contour>
  </outline>
</glyph>
<glyph name="ij" format="2">
  <advance width="600"/>
  <unicode hex="0133"/>
  <outline>
    <contour>
      <point x="249" y="603" type="curve" smooth="yes"/>
      <point x="287" y="603"/>
      <point x="318" y="634"/>
      <point x="318" y="670" type="curve" smooth="yes"/>
      <point x="318" y="702"/>
      <point x="292" y="728"/>
      <point x="260" y="728" type="curve" smooth="yes"/>
      <point x="223" y="728"/>
      <point x="191" y="696"/>
      <point x="191" y="661" type="curve" smooth="yes"/>
      <point x="191" y="628"/>
      <point x="216" y="603"/>
    </contour>
    <contour>
      <point x="512" y="604" type="curve" smooth="yes"/>
      <point x="550" y="604"/>
      <point x="581" y="635"/>
      <point x="581" y="670" type="curve" smooth="yes"/>
      <point x="581" y="702"/>
      <point x="555" y="728"/>
      <point x="523" y="728" type="curve" smooth="yes"/>
      <point x="486" y="728"/>
      <point x="454" y="696"/>
      <point x="454" y="661" type="curve" smooth="yes"/>
      <point x="454" y="629"/>
      <point x="479" y="604"/>
    </contour>
    <contour>
      <point x="76" y="0" type="line"/>
      <point x="149" y="0" type="line"/>
      <point x="253" y="488" type="line"/>
      <point x="180" y="488" type="line"/>
    </contour>
    <contour>
      <point x="246" y="-219" type="curve"/>
      <point x="326" y="-219"/>
      <point x="378" y="-173"/>
      <point x="395" y="-94" type="curve" smooth="yes"/>
      <point x="518" y="488" type="line"/>
      <point x="445" y="488" type="line"/>
      <point x="323" y="-90" type="line" smooth="yes"/>
      <point x="313" y="-135"/>
      <point x="293" y="-154"/>
      <point x="251" y="-154" type="curve"/>
      <point x="237" y="-154"/>
      <point x="227" y="-153"/>
      <point x="216" y="-150" type="curve"/>
      <point x="202" y="-213" type="line"/>
      <point x="215" y="-216"/>
      <point x="230" y="-219"/>
    </contour>
  </outline>
</glyph>
<glyph name="Lslash" format="2">
  <advance width="600"/>
  <unicode hex="0141"/>
  <outline>
    <contour>
      <point x="57" y="0" type="line"/>
      <point x="494" y="0" type="line"/>
      <point x="508" y="68" type="line"/>
      <point x="148" y="68" type="line"/>
      <point x="197" y="297" type="line"/>
      <point x="406" y="433" type="line"/>
      <point x="421" y="514" type="line"/>
      <point x="214" y="379" type="line"/>
      <point x="283" y="700" type="line"/>
      <point x="206" y="700" type="line"/>
      <point x="126" y="324" type="line"/>
      <point x="8" y="247" type="line"/>
      <point x="-8" y="166" type="line"/>
      <point x="109" y="242" type="line"/>
    </contour>
  </outline>
</glyph>
<glyph name="lslash" format="2">
  <advance width="600"/>
  <unicode hex="0142"/>
  <outline>
    <contour>
      <point x="357" y="-10" type="curve" smooth="yes"/>
      <point x="388" y="-10"/>
      <point x="422" y="-7"/>
      <point x="463" y="7" type="curve"/>
      <point x="477" y="73" type="line"/>
      <point x="434" y="58"/>
      <point x="405" y="55"/>
      <point x="371" y="55" type="curve" smooth="yes"/>
      <point x="306" y="55"/>
      <point x="279" y="85"/>
      <point x="294" y="153" type="curve" smooth="yes"/>
      <point x="331" y="326" type="line"/>
      <point x="556" y="439" type="line"/>
      <point x="572" y="513" type="line"/>
      <point x="347" y="400" type="line"/>
      <point x="417" y="727" type="line"/>
      <point x="163" y="727" type="line"/>
      <point x="150" y="667" type="line"/>
      <point x="331" y="667" type="line"/>
      <point x="266" y="361" type="line"/>
      <point x="95" y="275" type="line"/>
      <point x="79" y="201" type="line"/>
      <point x="250" y="287" type="line"/>
      <point x="222" y="156" type="line" smooth="yes"/>
      <point x="199" y="50"/>
      <point x="254" y="-10"/>
    </contour>
  </outline>
</glyph>
<glyph name="OE" format="2">
  <advance width="600"/>
  <unicode hex="0152"/>
  <outline>
    <contour>
      <point x="301" y="0" type="curve" smooth="yes"/>
      <point x="533" y="0" type="line"/>
      <point x="547" y="67" type="line"/>
      <point x="331" y="67" type="line"/>
      <point x="385" y="320" type="line"/>
      <point x="524" y="320" type="line"/>
      <point x="538" y="387" type="line"/>
      <point x="399" y="387" type="line"/>
      <point x="451" y="633" type="line"/>
      <point x="664" y="633" type="line"/>
      <point x="678" y="700" type="line"/>
      <point x="393" y="700" type="line"/>
      <point x="184" y="700"/>
      <point x="42" y="520"/>
      <point x="42" y="270" type="curve" smooth="yes"/>
      <point x="42" y="91"/>
      <point x="143" y="0"/>
    </contour>
    <contour>
      <point x="256" y="70" type="line"/>
      <point x="168" y="86"/>
      <point x="118" y="159"/>
      <point x="118" y="274" type="curve" smooth="yes"/>
      <point x="118" y="473"/>
      <point x="220" y="625"/>
      <point x="376" y="633" type="curve"/>
    </contour>
  </outline>
</glyph>
<glyph name="scedilla" format="2">
  <advance width="600"/>
  <unicode hex="015F"/>
  <outline>
    <contour>
      <point x="227" y="-239" type="curve"/>
      <point x="293" y="-239"/>
      <point x="343" y="-195"/>
      <point x="343" y="-138" type="curve"/>
      <point x="343" y="-99"/>
      <point x="313" y="-70"/>
      <point x="262" y="-66" type="curve"/>
      <point x="287" y="-10" type="line"/>
      <point x="401" y="-10"/>
      <point x="483" y="53"/>
      <point x="483" y="140" type="curve"/>
      <point x="483" y="325"/>
      <point x="178" y="234"/>
      <point x="178" y="359" type="curve" smooth="yes"/>
      <point x="178" y="405"/>
      <point x="222" y="436"/>
      <point x="295" y="436" type="curve" smooth="yes"/>
      <point x="351" y="436"/>
      <point x="412" y="410"/>
      <point x="464" y="362" type="curve"/>
      <point x="507" y="412" type="line"/>
      <point x="447" y="470"/>
      <point x="371" y="496"/>
      <point x="292" y="496" type="curve" smooth="yes"/>
      <point x="179" y="496"/>
      <point x="113" y="437"/>
      <point x="113" y="352" type="curve" smooth="yes"/>
      <point x="113" y="167"/>
      <point x="415" y="256"/>
      <point x="415" y="136" type="curve"/>
      <point x="415" y="84"/>
      <point x="366" y="49"/>
      <point x="290" y="49" type="curve" smooth="yes"/>
      <point x="227" y="49"/>
      <point x="173" y="68"/>
      <point x="107" y="131" type="curve"/>
      <point x="63" y="84" type="line"/>
      <point x="110" y="34"/>
      <point x="176" y="1"/>
      <point x="246" y="-8" type="curve"/>
      <point x="205" y="-99" type="line"/>
      <point x="233" y="-99" type="line" smooth="yes"/>
      <point x="273" y="-99"/>
      <point x="297" y="-116"/>
      <point x="297" y="-144" type="curve"/>
      <point x="297" y="-177"/>
      <point x="269" y="-199"/>
      <point x="225" y="-199" type="curve"/>
      <point x="196" y="-199"/>
      <point x="172" y="-189"/>
      <point x="152" y="-167" type="curve"/>
      <point x="121" y="-197" type="line"/>
      <point x="143" y="-224"/>
      <point x="182" y="-239"/>
    </contour>
  </outline>
</glyph>
<glyph name="tcedilla" format="2">
  <advance width="600"/>
  <unicode hex="0163"/>
  <outline>
    <contour>
      <point x="274" y="-239" type="curve"/>
      <point x="340" y="-239"/>
      <point x="390" y="-195"/>
      <point x="390" y="-138" type="curve"/>
      <point x="390" y="-99"/>
      <point x="360" y="-70"/>
      <point x="309" y="-66" type="curve"/>
      <point x="334" y="-10" type="line"/>
      <point x="336" y="-10"/>
      <point x="339" y="-10"/>
      <point x="341" y="-10" type="curve" smooth="yes"/>
      <point x="380" y="-10"/>
      <point x="421" y="-2"/>
      <point x="460" y="14" type="curve"/>
      <point x="474" y="80" type="line"/>
      <point x="425" y="62"/>
      <point x="389" y="54"/>
      <point x="352" y="54" type="curve" smooth="yes"/>
      <point x="279" y="54"/>
      <point x="249" y="80"/>
      <point x="263" y="145" type="curve" smooth="yes"/>
      <point x="323" y="428" type="line"/>
      <point x="548" y="428" type="line"/>
      <point x="561" y="488" type="line"/>
      <point x="336" y="488" type="line"/>
      <point x="368" y="639" type="line"/>
      <point x="291" y="622" type="line"/>
      <point x="263" y="488" type="line"/>
      <point x="96" y="488" type="line"/>
      <point x="83" y="428" type="line"/>
      <point x="250" y="428" type="line"/>
      <point x="191" y="148" type="line" smooth="yes"/>
      <point x="174" y="67"/>
      <point x="212" y="10"/>
      <point x="293" y="-6" type="curve"/>
      <point x="252" y="-99" type="line"/>
      <point x="280" y="-99" type="line" smooth="yes"/>
      <point x="320" y="-99"/>
      <point x="344" y="-116"/>
      <point x="344" y="-144" type="curve"/>
      <point x="344" y="-177"/>
      <point x="316" y="-199"/>
      <point x="272" y="-199" type="curve"/>
      <point x="243" y="-199"/>
      <point x="219" y="-189"/>
      <point x="199" y="-167" type="curve"/>
      <point x="168" y="-197" type="line"/>
      <point x="190" y="-224"/>
      <point x="229" y="-239"/>
    </contour>
  </outline>
</glyph>
<glyph name="dotlessj" format="2">
  <advance width="600"/>
  <unicode hex="0237"/>
  <anchor x="437" y="488" name="top"/>
  <outline>
    <contour>
      <point x="168" y="-219" type="curve" smooth="yes"/>
      <point x="267" y="-219"/>
      <point x="331" y="-181"/>
      <point x="355" y="-68" type="curve" smooth="yes"/>
      <point x="473" y="488" type="line"/>
      <point x="149" y="488" type="line"/>
      <point x="136" y="428" type="line"/>
      <point x="387" y="428" type="line"/>
      <point x="284" y="-55" type="line" smooth="yes"/>
      <point x="268" y="-128"/>
      <point x="235" y="-154"/>
      <point x="169" y="-154" type="curve" smooth="yes"/>
      <point x="121" y="-154"/>
      <point x="75" y="-140"/>
      <point x="20" y="-113" type="curve"/>
      <point x="7" y="-179" type="line"/>
      <point x="57" y="-204"/>
      <point x="112" y="-219"/>
    </contour>
  </outline>
</glyph>
<glyph name="caron" format="2">
  <advance width="600"/>
  <unicode hex="02C7"/>
  <outline>
    <contour>
      <point x="335" y="603" type="line"/>
      <point x="412" y="603" type="line"/>
      <point x="549" y="730" type="line"/>
      <point x="487" y="730" type="line"/>
      <point x="378" y="646" type="line"/>
      <point x="306" y="730" type="line"/>
      <point x="249" y="730" type="line"/>
    </contour>
  </outline>
</glyph>
<glyph name="hungarumlaut" format="2">
  <advance width="600"/>
  <unicode hex="02DD"/>
  <outline>
    <contour>
      <point x="224" y="582" type="line"/>
      <point x="294" y="582" type="line"/>
      <point x="459" y="706" type="line"/>
      <point x="375" y="706" type="line"/>
    </contour>
    <contour>
      <point x="394" y="582" type="line"/>
      <point x="462" y="582" type="line"/>
      <point x="629" y="706" type="line"/>
      <point x="545" y="706" type="line"/>
    </contour>
  </outline>
</glyph>
<glyph name="endash" format="2">
  <advance width="600"/>
  <unicode hex="2013"/>
  <outline>
    <contour>
      <point x="87" y="250" type="line"/>
      <point x="515" y="250" type="line"/>
      <point x="528" y="310" type="line"/>
      <point x="100" y="310" type="line"/>
    </contour>
  </outline>
</glyph>
<glyph name="quotedblleft" format="2">
  <advance width="600"/>
  <unicode hex="201C"/>
  <outline>
    <contour>
      <point x="383" y="750" type="line"/>
      <point x="326" y="750" type="line"/>
      <point x="186" y="519" type="line"/>
      <point x="284" y="519" type="line"/>
    </contour>
    <contour>
      <point x="543" y="750" type="line"/>
      <point x="486" y="750" type="line"/>
      <point x="346" y="519" type="line"/>
      <point x="444" y="519" type="line"/>
    </contour>
  </outline>
</glyph>
<glyph name="ellipsis" format="2">
  <advance width="600"/>
  <unicode hex="2026"/>
  <outline>
    <contour>
      <point x="49" y="-9" type="curve" smooth="yes"/>
      <point x="86" y="-9"/>
      <point x="119" y="26"/>
      <point x="119" y="63" type="curve" smooth="yes"/>
      <point x="119" y="96"/>
      <point x="94" y="121"/>
      <point x="62" y="121" type="curve" smooth="yes"/>
      <point x="24" y="121"/>
      <point x="-9" y="87"/>
      <point x="-9" y="49" type="curve" smooth="yes"/>
      <point x="-9" y="16"/>
      <point x="16" y="-9"/>
    </contour>
    <contour>
      <point x="254" y="-9" type="curve" smooth="yes"/>
      <point x="291" y="-9"/>
      <point x="324" y="26"/>
      <point x="324" y="63" type="curve" smooth="yes"/>
      <point x="324" y="96"/>
      <point x="299" y="121"/>
      <point x="267" y="121" type="curve" smooth="yes"/>
      <point x="229" y="121"/>
      <point x="196" y="87"/>
      <point x="196" y="49" type="curve" smooth="yes"/>
      <point x="196" y="16"/>
      <point x="221" y="-9"/>
    </contour>
    <contour>
      <point x="458" y="-9" type="curve" smooth="yes"/>
      <point x="495" y="-9"/>
      <point x="528" y="26"/>
      <point x="528" y="63" type="curve" smooth="yes"/>
      <point x="528" y="96"/>
      <point x="503" y="121"/>
      <point x="471" y="121" type="curve" smooth="yes"/>
      <point x="433" y="121"/>
      <point x="400" y="87"/>
      <point x="400" y="49" type="curve" smooth="yes"/>
      <point x="400" y="16"/>
      <point x="425" y="-9"/>
    </contour>
  </outline>
</glyph>
<glyph name="guilsinglright" format="2">
  <advance width="600"/>
  <unicode hex="203A"/>
  <outline>
    <contour>
      <point x="293" y="488" type="line"/>
      <point x="216" y="488" type="line"/>
      <point x="383" y="247" type="line"/>
      <point x="109" y="0" type="line"/>
      <point x="192" y="0" type="line"/>
      <point x="467" y="243" type="line"/>
    </contour>
  </outline>
</glyph>
<glyph name="fraction" format="2">
  <advance width="600"/>
  <unicode hex="2044"/>
  <outline>
    <contour>
      <point x="-15" y="0" type="line"/>
      <point x="42" y="0" type="line"/>
      <point x="584" y="700" type="line"/>
      <point x="525" y="700" type="line"/>
    </contour>
  </outline>
</glyph>
<glyph name="uni2079" format="2">
  <advance width="600"/>
  <unicode hex="2079"/>
  <outline>
    <contour>
      <point x="385" y="704" type="curve" smooth="yes"/>
      <point x="311" y="704"/>
      <point x="250" y="647"/>
      <point x="250" y="579" type="curve" smooth="yes"/>
      <point x="250" y="524"/>
      <point x="293" y="484"/>
      <point x="352" y="484" type="curve" smooth="yes"/>
      <point x="389" y="484"/>
      <point x="427" y="500"/>
      <point x="455" y="526" type="curve"/>
      <point x="440" y="447"/>
      <point x="387" y="389"/>
      <point x="322" y="389" type="curve" smooth="yes"/>
      <point x="300" y="389"/>
      <point x="275" y="397"/>
      <point x="249" y="412" type="curve"/>
      <point x="222" y="372" type="line"/>
      <point x="252" y="352"/>
      <point x="280" y="344"/>
      <point x="315" y="344" type="curve" smooth="yes"/>
      <point x="421" y="344"/>
      <point x="508" y="445"/>
      <point x="508" y="567" type="curve" smooth="yes"/>
      <point x="508" y="651"/>
      <point x="459" y="704"/>
    </contour>
    <contour>
      <point x="379" y="660" type="curve" smooth="yes"/>
      <point x="433" y="660"/>
      <point x="459" y="624"/>
      <point x="459" y="560" type="curve"/>
      <point x="433" y="536"/>
      <point x="403" y="523"/>
      <point x="372" y="523" type="curve" smooth="yes"/>
      <point x="329" y="523"/>
      <point x="299" y="549"/>
      <point x="299" y="586" type="curve" smooth="yes"/>
      <point x="299" y="627"/>
      <point x="336" y="660"/>
    </contour>
  </outline>
</glyph>
<glyph name="uni2081" format="2">
  <advance width="600"/>
  <unicode hex="2081"/>
  <outline>
    <contour>
      <point x="248" y="0" type="line"/>
      <point x="298" y="0" type="line"/>
      <point x="373" y="350" type="line"/>
      <point x="341" y="350" type="line"/>
      <point x="244" y="315" type="line"/>
      <point x="233" y="266" type="line"/>
      <point x="311" y="293" type="line"/>
    </contour>
  </outline>
</glyph>
<glyph name="uni2082" format="2">
  <advance width="600"/>
  <unicode hex="2082"/>
  <outline>
    <contour>
      <point x="131" y="0" type="line"/>
      <point x="369" y="0" type="line"/>
      <point x="378" y="43" type="line"/>
      <point x="209" y="43" type="line"/>
      <point x="350" y="156" type="line" smooth="yes"/>
      <point x="399" y="194"/>
      <point x="418" y="226"/>
      <point x="418" y="267" type="curve" smooth="yes"/>
      <point x="418" y="319"/>
      <point x="374" y="355"/>
      <point x="312" y="355" type="curve" smooth="yes"/>
      <point x="272" y="355"/>
      <point x="231" y="339"/>
      <point x="188" y="309" type="curve"/>
      <point x="210" y="272" type="line"/>
      <point x="247" y="299"/>
      <point x="274" y="310"/>
      <point x="303" y="310" type="curve" smooth="yes"/>
      <point x="341" y="310"/>
      <point x="367" y="289"/>
      <point x="367" y="258" type="curve" smooth="yes"/>
      <point x="367" y="231"/>
      <point x="351" y="206"/>
      <point x="317" y="180" type="curve" smooth="yes"/>
      <point x="139" y="37" type="line"/>
    </contour>
  </outline>
</glyph>
<glyph name="uni2085" format="2">
  <advance width="600"/>
  <unicode hex="2085"/>
  <outline>
    <contour>
      <point x="257" y="-5" type="curve" smooth="yes"/>
      <point x="335" y="-5"/>
      <point x="398" y="50"/>
      <point x="398" y="120" type="curve" smooth="yes"/>
      <point x="398" y="178"/>
      <point x="352" y="216"/>
      <point x="283" y="216" type="curve" smooth="yes"/>
      <point x="264" y="216"/>
      <point x="245" y="213"/>
      <point x="225" y="207" type="curve"/>
      <point x="251" y="308" type="line"/>
      <point x="420" y="308" type="line"/>
      <point x="429" y="350" type="line"/>
      <point x="217" y="350" type="line"/>
      <point x="175" y="180" type="line"/>
      <point x="204" y="167" type="line"/>
      <point x="225" y="175"/>
      <point x="245" y="178"/>
      <point x="270" y="178" type="curve" smooth="yes"/>
      <point x="318" y="178"/>
      <point x="346" y="155"/>
      <point x="346" y="114" type="curve" smooth="yes"/>
      <point x="346" y="70"/>
      <point x="307" y="37"/>
      <point x="258" y="37" type="curve" smooth="yes"/>
      <point x="224" y="37"/>
      <point x="194" y="50"/>
      <point x="162" y="78" type="curve"/>
      <point x="133" y="41" type="line"/>
      <point x="165" y="10"/>
      <point x="206" y="-5"/>
    </contour>
  </outline>
</glyph>
<glyph name="uni2086" format="2">
  <advance width="600"/>
  <unicode hex="2086"/>
  <outline>
    <contour>
      <point x="271" y="-5" type="curve" smooth="yes"/>
      <point x="345" y="-5"/>
      <point x="406" y="52"/>
      <point x="406" y="120" type="curve" smooth="yes"/>
      <point x="406" y="175"/>
      <point x="363" y="215"/>
      <point x="304" y="215" type="curve" smooth="yes"/>
      <point x="267" y="215"/>
      <point x="229" y="199"/>
      <point x="201" y="173" type="curve"/>
      <point x="216" y="252"/>
      <point x="269" y="310"/>
      <point x="334" y="310" type="curve" smooth="yes"/>
      <point x="356" y="310"/>
      <point x="381" y="302"/>
      <point x="407" y="287" type="curve"/>
      <point x="434" y="327" type="line"/>
      <point x="404" y="347"/>
      <point x="376" y="355"/>
      <point x="341" y="355" type="curve" smooth="yes"/>
      <point x="235" y="355"/>
      <point x="148" y="254"/>
      <point x="148" y="132" type="curve" smooth="yes"/>
      <point x="148" y="48"/>
      <point x="197" y="-5"/>
    </contour>
    <contour>
      <point x="277" y="39" type="curve" smooth="yes"/>
      <point x="223" y="39"/>
      <point x="197" y="75"/>
      <point x="197" y="139" type="curve"/>
      <point x="223" y="163"/>
      <point x="253" y="176"/>
      <point x="284" y="176" type="curve" smooth="yes"/>
      <point x="327" y="176"/>
      <point x="357" y="150"/>
      <point x="357" y="113" type="curve" smooth="yes"/>
      <point x="357" y="72"/>
      <point x="320" y="39"/>
    </contour>
  </outline>
</glyph>
<glyph name="uni2089" format="2">
  <advance width="600"/>
  <unicode hex="2089"/>
  <outline>
    <contour>
      <point x="311" y="354" type="curve" smooth="yes"/>
      <point x="237" y="354"/>
      <point x="176" y="297"/>
      <point x="176" y="229" type="curve" smooth="yes"/>
      <point x="176" y="174"/>
      <point x="219" y="134"/>
      <point x="278" y="134" type="curve" smooth="yes"/>
      <point x="315" y="134"/>
      <point x="353" y="150"/>
      <point x="381" y="176" type="curve"/>
      <point x="366" y="97"/>
      <point x="313" y="39"/>
      <point x="248" y="39" type="curve" smooth="yes"/>
      <point x="226" y="39"/>
      <point x="201" y="47"/>
      <point x="175" y="62" type="curve"/>
      <point x="148" y="22" type="line"/>
      <point x="178" y="2"/>
      <point x="206" y="-6"/>
      <point x="241" y="-6" type="curve" smooth="yes"/>
      <point x="347" y="-6"/>
      <point x="434" y="95"/>
      <point x="434" y="217" type="curve" smooth="yes"/>
      <point x="434" y="301"/>
      <point x="385" y="354"/>
    </contour>
    <contour>
      <point x="305" y="310" type="curve" smooth="yes"/>
      <point x="359" y="310"/>
      <point x="385" y="274"/>
      <point x="385" y="210" type="curve"/>
      <point x="359" y="186"/>
      <point x="329" y="173"/>
      <point x="298" y="173" type="curve" smooth="yes"/>
      <point x="255" y="173"/>
      <point x="225" y="199"/>
      <point x="225" y="236" type="curve" smooth="yes"/>
      <point x="225" y="277"/>
      <point x="262" y="310"/>
    </contour>
  </outline>
</glyph>
<glyph name="Euro" format="2">
  <advance width="600"/>
  <unicode hex="20AC"/>
  <outline>
    <contour>
      <point x="8" y="256" type="line"/>
      <point x="89" y="256" type="line"/>
      <point x="96" y="74"/>
      <point x="177" y="-11"/>
      <point x="299" y="-11" type="curve" smooth="yes"/>
      <point x="389" y="-11"/>
      <point x="472" y="45"/>
      <point x="525" y="142" type="curve"/>
      <point x="465" y="176" type="line"/>
      <point x="425" y="103"/>
      <point x="370" y="59"/>
      <point x="307" y="59" type="curve" smooth="yes"/>
      <point x="226" y="59"/>
      <point x="172" y="118"/>
      <point x="166" y="256" type="curve"/>
      <point x="353" y="256" type="line"/>
      <point x="380" y="310" type="line"/>
      <point x="166" y="310" type="line"/>
      <point x="167" y="338"/>
      <point x="169" y="364"/>
      <point x="174" y="389" type="curve"/>
      <point x="425" y="389" type="line"/>
      <point x="454" y="443" type="line"/>
      <point x="186" y="443" type="line"/>
      <point x="220" y="564"/>
      <point x="294" y="641"/>
      <point x="383" y="641" type="curve" smooth="yes"/>
      <point x="450" y="641"/>
      <point x="499" y="598"/>
      <point x="518" y="506" type="curve"/>
      <point x="591" y="527" type="line"/>
      <point x="560" y="656"/>
      <point x="480" y="711"/>
      <point x="385" y="711" type="curve" smooth="yes"/>
      <point x="261" y="711"/>
      <point x="154" y="603"/>
      <point x="110" y="443" type="curve"/>
      <point x="48" y="443" type="line"/>
      <point x="36" y="389" type="line"/>
      <point x="98" y="389" type="line"/>
      <point x="94" y="364"/>
      <point x="91" y="337"/>
      <point x="90" y="310" type="curve"/>
      <point x="19" y="310" type="line"/>
    </contour>
  </outline>
</glyph>
<glyph name="minus" format="2">
  <advance width="600"/>
  <unicode hex="2212"/>
  <outline>
    <contour>
      <point x="120" y="328" type="line"/>
      <point x="514" y="328" type="line"/>
      <point x="527" y="388" type="line"/>
      <point x="133" y="388" type="line"/>
    </contour>
  </outline>
</glyph>
<glyph name="a.school" format="2">
  <advance width="600"/>
  <anchor x="339" y="488" name="top"/>
  <anchor x="457" y="0" name="bottom"/>
  <outline>
    <contour>
      <point x="256" y="-7" type="curve"/>
      <point x="311" y="-7"/>
      <point x="358" y="13"/>
      <point x="397" y="51" type="curve"/>
      <point x="386" y="0" type="line"/>
      <point x="457" y="0" type="line"/>
      <point x="561" y="488" type="line"/>
      <point x="490" y="488" type="line"/>
      <point x="473" y="407" type="line"/>
      <point x="439" y="463"/>
      <point x="383" y="494"/>
      <point x="314" y="494" type="curve" smooth="yes"/>
      <point x="175" y="494"/>
      <point x="61" y="368"/>
      <point x="61" y="215" type="curve" smooth="yes"/>
      <point x="61" y="87"/>
      <point x="144" y="-7"/>
    </contour>
    <contour>
      <point x="282" y="55" type="curve"/>
      <point x="193" y="55"/>
      <point x="132" y="122"/>
      <point x="132" y="221" type="curve" smooth="yes"/>
      <point x="132" y="338"/>
      <point x="216" y="430"/>
      <point x="323" y="430" type="curve" smooth="yes"/>
      <point x="382" y="430"/>
      <point x="436" y="397"/>
      <point x="460" y="349" type="curve"/>
      <point x="409" y="109" type="line"/>
      <point x="373" y="74"/>
      <point x="329" y="55"/>
    </contour>
  </outline>
</glyph>
<glyph name="acutecomb" format="2">
  <anchor x="352" y="488" name="_top"/>
  <outline>
    <contour>
      <point x="277" y="604" type="line"/>
      <point x="347" y="604" type="line"/>
      <point x="513" y="726" type="line"/>
      <point x="412" y="726" type="line"/>
    </contour>
  </outline>
</glyph>
<glyph name="cordinal" format="2">
  <advance width="600"/>
  <outline>
    <contour>
      <point x="339" y="317" type="curve" smooth="yes"/>
      <point x="387" y="317"/>
      <point x="434" y="332"/>
      <point x="474" y="361" type="curve"/>
      <point x="443" y="412" type="line"/>
      <point x="405" y="385"/>
      <point x="373" y="373"/>
      <point x="339" y="373" type="curve" smooth="yes"/>
      <point x="271" y="373"/>
      <point x="222" y="424"/>
      <point x="222" y="494" type="curve"/>
      <point x="222" y="579"/>
      <point x="294" y="655"/>
      <point x="373" y="655" type="curve"/>
      <point x="415" y="655"/>
      <point x="459" y="630"/>
      <point x="482" y="594" type="curve"/>
      <point x="530" y="633" type="line"/>
      <point x="498" y="680"/>
      <point x="436" y="711"/>
      <point x="373" y="711" type="curve"/>
      <point x="257" y="711"/>
      <point x="160" y="612"/>
      <point x="160" y="494" type="curve"/>
      <point x="160" y="391"/>
      <point x="235" y="317"/>
    </contour>
  </outline>
</glyph>
<glyph name="exclamdown.cap" format="2">
  <advance width="600"/>
  <outline>
    <contour>
      <point x="382" y="490" type="line"/>
      <point x="325" y="490" type="line"/>
      <point x="205" y="-22" type="line"/>
      <point x="280" y="-22" type="line"/>
    </contour>
    <contour>
      <point x="392" y="714" type="curve" smooth="yes"/>
      <point x="355" y="714"/>
      <point x="322" y="679"/>
      <point x="322" y="642" type="curve" smooth="yes"/>
      <point x="322" y="609"/>
      <point x="347" y="584"/>
      <point x="379" y="584" type="curve" smooth="yes"/>
      <point x="417" y="584"/>
      <point x="450" y="618"/>
      <point x="450" y="656" type="curve" smooth="yes"/>
      <point x="450" y="689"/>
      <point x="425" y="714"/>
    </contour>
  </outline>
</glyph>
<glyph name="g.alt" format="2">
  <advance width="600"/>
  <anchor x="320" y="488" name="top"/>
  <outline>
    <contour>
      <point x="240" y="-219" type="curve" smooth="yes"/>
      <point x="385" y="-219"/>
      <point x="479" y="-159"/>
      <point x="479" y="-67" type="curve" smooth="yes"/>
      <point x="479" y="-17"/>
      <point x="443" y="16"/>
      <point x="372" y="25" type="curve" smooth="yes"/>
      <point x="191" y="49" type="line" smooth="yes"/>
      <point x="157" y="53"/>
      <point x="140" y="66"/>
      <point x="140" y="87" type="curve" smooth="yes"/>
      <point x="140" y="116"/>
      <point x="173" y="139"/>
      <point x="219" y="143" type="curve"/>
      <point x="239" y="136"/>
      <point x="262" y="132"/>
      <point x="285" y="132" type="curve" smooth="yes"/>
      <point x="405" y="132"/>
      <point x="502" y="222"/>
      <point x="502" y="332" type="curve" smooth="yes"/>
      <point x="502" y="360"/>
      <point x="494" y="386"/>
      <point x="481" y="409" type="curve"/>
      <point x="491" y="440"/>
      <point x="519" y="460"/>
      <point x="553" y="460" type="curve" smooth="yes"/>
      <point x="570" y="460"/>
      <point x="586" y="457"/>
      <point x="599" y="453" type="curve"/>
      <point x="613" y="522" type="line"/>
      <point x="602" y="525"/>
      <point x="588" y="527"/>
      <point x="577" y="527" type="curve" smooth="yes"/>
      <point x="521" y="527"/>
      <point x="480" y="492"/>
      <point x="464" y="433" type="curve"/>
      <point x="431" y="471"/>
      <point x="380" y="496"/>
      <point x="322" y="496" type="curve" smooth="yes"/>
      <point x="202" y="496"/>
      <point x="105" y="406"/>
      <point x="105" y="296" type="curve" smooth="yes"/>
      <point x="105" y="240"/>
      <point x="136" y="190"/>
      <point x="184" y="161" type="curve"/>
      <point x="120" y="150"/>
      <point x="73" y="110"/>
      <point x="73" y="62" type="curve" smooth="yes"/>
      <point x="73" y="34"/>
      <point x="89" y="12"/>
      <point x="118" y="-2" type="curve"/>
      <point x="41" y="-21"/>
      <point x="0" y="-56"/>
      <point x="0" y="-103" type="curve" smooth="yes"/>
      <point x="0" y="-174"/>
      <point x="94" y="-219"/>
    </contour>
    <contour>
      <point x="289" y="188" type="curve" smooth="yes"/>
      <point x="226" y="188"/>
      <point x="175" y="239"/>
      <point x="175" y="301" type="curve" smooth="yes"/>
      <point x="175" y="378"/>
      <point x="239" y="440"/>
      <point x="318" y="440" type="curve" smooth="yes"/>
      <point x="381" y="440"/>
      <point x="432" y="389"/>
      <point x="432" y="327" type="curve" smooth="yes"/>
      <point x="432" y="250"/>
      <point x="368" y="188"/>
    </contour>
    <contour>
      <point x="244" y="-166" type="curve" smooth="yes"/>
      <point x="137" y="-166"/>
      <point x="70" y="-136"/>
      <point x="70" y="-89" type="curve" smooth="yes"/>
      <point x="70" y="-54"/>
      <point x="102" y="-27"/>
      <point x="154" y="-14" type="curve"/>
      <point x="161" y="-16"/>
      <point x="168" y="-17"/>
      <point x="175" y="-18" type="curve" smooth="yes"/>
      <point x="352" y="-39" type="line" smooth="yes"/>
      <point x="386" y="-43"/>
      <point x="404" y="-62"/>
      <point x="404" y="-86" type="curve" smooth="yes"/>
      <point x="404" y="-133"/>
      <point x="339" y="-166"/>
    </contour>
  </outline>
</glyph>
<glyph name="questiondown.cap" format="2">
  <advance width="600"/>
  <outline>
    <contour>
      <point x="411" y="481" type="curve"/>
      <point x="349" y="481" type="line"/>
      <point x="328" y="310"/>
      <point x="78" y="350"/>
      <point x="78" y="144" type="curve" smooth="yes"/>
      <point x="78" y="56"/>
      <point x="156" y="-11"/>
      <point x="268" y="-11" type="curve" smooth="yes"/>
      <point x="345" y="-11"/>
      <point x="423" y="25"/>
      <point x="485" y="90" type="curve"/>
      <point x="437" y="134" type="line"/>
      <point x="388" y="84"/>
      <point x="330" y="55"/>
      <point x="272" y="55" type="curve" smooth="yes"/>
      <point x="199" y="55"/>
      <point x="149" y="95"/>
      <point x="149" y="151" type="curve" smooth="yes"/>
      <point x="149" y="303"/>
      <point x="395" y="279"/>
    </contour>
    <contour>
      <point x="416" y="705" type="curve" smooth="yes"/>
      <point x="379" y="705"/>
      <point x="346" y="670"/>
      <point x="346" y="633" type="curve" smooth="yes"/>
      <point x="346" y="600"/>
      <point x="371" y="575"/>
      <point x="403" y="575" type="curve" smooth="yes"/>
      <point x="441" y="575"/>
      <point x="474" y="609"/>
      <point x="474" y="647" type="curve" smooth="yes"/>
      <point x="474" y="680"/>
      <point x="449" y="705"/>
    </contour>
  </outline>
</glyph>
<glyph name="reversequotedblleft" format="2">
  <advance width="600"/>
  <outline>
    <contour>
      <point x="367" y="519" type="line"/>
      <point x="268" y="750" type="line"/>
      <point x="170" y="750" type="line"/>
      <point x="310" y="519" type="line"/>
    </contour>
    <contour>
      <point x="527" y="519" type="line"/>
      <point x="428" y="750" type="line"/>
      <point x="330" y="750" type="line"/>
      <point x="470" y="519" type="line"/>
    </contour>
  </outline>
</glyph>
<glyph name="uni0304" format="2">
  <anchor x="352" y="488" name="_top"/>
  <outline>
    <contour>
      <point x="248" y="631" type="line"/>
      <point x="516" y="631" type="line"/>
      <point x="527" y="683" type="line"/>
      <point x="259" y="683" type="line"/>
    </contour>
  </outline>
</glyph>
<glyph name="uni0307" format="2">
  <anchor x="352" y="488" name="_top"/>
  <outline>
    <contour>
      <point x="384" y="604" type="curve" smooth="yes"/>
      <point x="422" y="604"/>
      <point x="453" y="635"/>
      <point x="453" y="670" type="curve" smooth="yes"/>
      <point x="453" y="702"/>
      <point x="427" y="728"/>
      <point x="395" y="728" type="curve" smooth="yes"/>
      <point x="358" y="728"/>
      <point x="326" y="696"/>
      <point x="326" y="661" type="curve" smooth="yes"/>
      <point x="326" y="629"/>
      <point x="351" y="604"/>
    </contour>
  </outline>
</glyph>
